# 3ds Max Wavefront OBJ Exporter v0.97b - (c)2007 guruware
# File Created: 27.05.2012 16:24:09

mtllib Box.mtl

#
# object Box001
#

v  -19.685040 -19.685040 19.685040
v  19.685040 -19.685040 19.685040
v  -19.685040 -19.685040 -19.685040
v  19.685040 -19.685040 -19.685040
v  -19.685040 19.685040 19.685040
v  19.685040 19.685040 19.685040
v  -19.685040 19.685040 -19.685040
v  19.685040 19.685040 -19.685040
# 8 vertices

vn 0.000000 -1.000000 -0.000000
vn 0.000000 1.000000 -0.000000
vn 0.000000 0.000000 1.000000
vn 1.000000 0.000000 -0.000000
vn 0.000000 0.000000 -1.000000
vn -1.000000 0.000000 -0.000000
# 6 vertex normals

vt 0.000000 0.000000 0.000000
vt 1.000000 0.000000 0.000000
vt 1.000000 1.000000 0.000000
vt 0.000000 1.000000 0.000000
# 4 texture coords

g Box001
usemtl _BoxMaterial__25
s off
f -7/-4/-6 -8/-3/-6 -6/-2/-6 -5/-1/-6 
f -2/-1/-5 -4/-4/-5 -3/-3/-5 -1/-2/-5 
f -4/-1/-4 -8/-4/-4 -7/-3/-4 -3/-2/-4 
f -3/-1/-3 -7/-4/-3 -5/-3/-3 -1/-2/-3 
f -1/-1/-2 -5/-4/-2 -6/-3/-2 -2/-2/-2 
f -2/-1/-1 -6/-4/-1 -8/-3/-1 -4/-2/-1 
# 6 polygons

