# 3ds Max Wavefront OBJ Exporter v0.97b - (c)2007 guruware
# File Created: 27.05.2012 16:25:12

mtllib Capsule.mtl

#
# object Capsule002
#

v  0.000000 77.310249 -0.000000
v  5.916809 76.531288 -0.000000
v  5.124115 76.531288 -2.958405
v  2.958405 76.531288 -5.124115
v  0.000000 76.531288 -5.916809
v  -2.958405 76.531288 -5.124115
v  -5.124115 76.531288 -2.958405
v  -5.916809 76.531288 -0.000000
v  -5.124115 76.531288 2.958405
v  -2.958405 76.531288 5.124115
v  0.000000 76.531288 5.916809
v  2.958405 76.531288 5.124115
v  5.124115 76.531288 2.958405
v  11.430405 74.247475 -0.000000
v  9.899017 74.247475 -5.715210
v  5.715195 74.247475 -9.899017
v  0.000000 74.247475 -11.430420
v  -5.715210 74.247475 -9.899017
v  -9.899017 74.247475 -5.715210
v  -11.430405 74.247475 -0.000000
v  -9.899017 74.247475 5.715210
v  -5.715210 74.247475 9.899017
v  0.000000 74.247475 11.430420
v  5.715195 74.247475 9.899017
v  9.899017 74.247475 5.715210
v  16.165039 70.614479 -0.000000
v  13.999329 70.614479 -8.082520
v  8.082520 70.614479 -13.999329
v  0.000000 70.614479 -16.165039
v  -8.082520 70.614479 -13.999329
v  -13.999329 70.614479 -8.082520
v  -16.165039 70.614479 -0.000000
v  -13.999329 70.614479 8.082520
v  -8.082520 70.614479 13.999329
v  0.000000 70.614479 16.165039
v  8.082504 70.614479 13.999329
v  13.999329 70.614479 8.082520
v  19.798035 65.879845 -0.000000
v  17.145599 65.879845 -9.899017
v  9.899017 65.879845 -17.145599
v  0.000000 65.879845 -19.798035
v  -9.899017 65.879845 -17.145599
v  -17.145599 65.879845 -9.899017
v  -19.798035 65.879845 -0.000000
v  -17.145615 65.879845 9.899017
v  -9.899033 65.879845 17.145599
v  -0.000015 65.879845 19.798035
v  9.899017 65.879845 17.145599
v  17.145599 65.879845 9.899048
v  22.081848 60.366249 -0.000000
v  19.123444 60.366249 -11.040924
v  11.040924 60.366249 -19.123444
v  0.000000 60.366249 -22.081848
v  -11.040924 60.366249 -19.123444
v  -19.123444 60.366249 -11.040924
v  -22.081848 60.366249 -0.000000
v  -19.123444 60.366249 11.040924
v  -11.040924 60.366249 19.123444
v  -0.000015 60.366249 22.081848
v  11.040909 60.366249 19.123444
v  19.123444 60.366249 11.040924
v  22.860809 54.449440 -0.000000
v  19.798035 54.449440 -11.430420
v  11.430405 54.449440 -19.798035
v  0.000000 54.449440 -22.860809
v  -11.430405 54.449440 -19.798035
v  -19.798035 54.449440 -11.430420
v  -22.860809 54.449440 -0.000000
v  -19.798050 54.449440 11.430389
v  -11.430405 54.449440 19.798035
v  -0.000015 54.449440 22.860809
v  11.430389 54.449440 19.798035
v  19.798035 54.449440 11.430420
v  22.860809 -54.449440 -0.000000
v  19.798035 -54.449440 -11.430420
v  11.430405 -54.449440 -19.798035
v  0.000000 -54.449440 -22.860809
v  -11.430405 -54.449440 -19.798035
v  -19.798035 -54.449440 -11.430420
v  -22.860809 -54.449440 -0.000000
v  -19.798050 -54.449440 11.430389
v  -11.430405 -54.449440 19.798035
v  -0.000015 -54.449440 22.860809
v  11.430389 -54.449440 19.798035
v  19.798035 -54.449440 11.430420
v  22.081848 -60.366249 -0.000000
v  19.123444 -60.366249 -11.040924
v  11.040924 -60.366249 -19.123444
v  0.000000 -60.366249 -22.081848
v  -11.040924 -60.366249 -19.123444
v  -19.123444 -60.366249 -11.040924
v  -22.081848 -60.366249 -0.000000
v  -19.123444 -60.366249 11.040924
v  -11.040924 -60.366249 19.123444
v  -0.000015 -60.366249 22.081848
v  11.040909 -60.366249 19.123444
v  19.123444 -60.366249 11.040924
v  19.798035 -65.879845 -0.000000
v  17.145599 -65.879845 -9.899017
v  9.899017 -65.879845 -17.145599
v  0.000000 -65.879845 -19.798035
v  -9.899017 -65.879845 -17.145599
v  -17.145599 -65.879845 -9.899017
v  -19.798035 -65.879845 -0.000000
v  -17.145615 -65.879845 9.899017
v  -9.899033 -65.879845 17.145599
v  -0.000015 -65.879845 19.798035
v  9.899017 -65.879845 17.145599
v  17.145599 -65.879845 9.899048
v  16.165039 -70.614479 -0.000000
v  13.999329 -70.614479 -8.082520
v  8.082520 -70.614479 -13.999329
v  0.000000 -70.614479 -16.165039
v  -8.082520 -70.614479 -13.999329
v  -13.999329 -70.614479 -8.082520
v  -16.165039 -70.614479 -0.000000
v  -13.999329 -70.614479 8.082520
v  -8.082520 -70.614479 13.999329
v  0.000000 -70.614479 16.165039
v  8.082504 -70.614479 13.999329
v  13.999329 -70.614479 8.082520
v  11.430405 -74.247475 -0.000000
v  9.899017 -74.247475 -5.715210
v  5.715195 -74.247475 -9.899017
v  0.000000 -74.247475 -11.430420
v  -5.715210 -74.247475 -9.899017
v  -9.899017 -74.247475 -5.715210
v  -11.430405 -74.247475 -0.000000
v  -9.899017 -74.247475 5.715210
v  -5.715210 -74.247475 9.899017
v  0.000000 -74.247475 11.430420
v  5.715195 -74.247475 9.899017
v  9.899017 -74.247475 5.715210
v  5.916809 -76.531288 -0.000000
v  5.124115 -76.531288 -2.958405
v  2.958405 -76.531288 -5.124115
v  0.000000 -76.531288 -5.916809
v  -2.958405 -76.531288 -5.124115
v  -5.124115 -76.531288 -2.958405
v  -5.916809 -76.531288 -0.000000
v  -5.124115 -76.531288 2.958405
v  -2.958405 -76.531288 5.124115
v  0.000000 -76.531288 5.916809
v  2.958405 -76.531288 5.124115
v  5.124115 -76.531288 2.958405
v  0.000000 -77.310249 -0.000000
# 146 vertices

vn 0.000000 1.000000 -0.000000
vn 0.278868 0.960329 0.000000
vn 0.241507 0.960329 -0.139434
vn 0.139434 0.960329 -0.241508
vn 0.000000 0.960329 -0.278868
vn -0.139434 0.960329 -0.241507
vn -0.241508 0.960329 -0.139434
vn -0.278868 0.960329 -0.000000
vn -0.241507 0.960329 0.139434
vn -0.139434 0.960329 0.241508
vn -0.000000 0.960329 0.278868
vn 0.139434 0.960329 0.241507
vn 0.241508 0.960329 0.139434
vn 0.515920 0.856637 0.000000
vn 0.446800 0.856637 -0.257961
vn 0.257960 0.856637 -0.446799
vn -0.000000 0.856637 -0.515920
vn -0.257961 0.856637 -0.446800
vn -0.446800 0.856637 -0.257960
vn -0.515920 0.856637 -0.000000
vn -0.446800 0.856637 0.257960
vn -0.257961 0.856637 0.446799
vn 0.000000 0.856637 0.515920
vn 0.257960 0.856637 0.446800
vn 0.446800 0.856637 0.257961
vn 0.717601 0.696454 -0.000000
vn 0.621461 0.696454 -0.358801
vn 0.358801 0.696454 -0.621461
vn -0.000000 0.696454 -0.717602
vn -0.358801 0.696454 -0.621461
vn -0.621461 0.696454 -0.358801
vn -0.717601 0.696454 0.000000
vn -0.621460 0.696455 0.358800
vn -0.358801 0.696455 0.621461
vn 0.000001 0.696454 0.717602
vn 0.358800 0.696455 0.621461
vn 0.621460 0.696455 0.358801
vn 0.871225 0.490884 -0.000000
vn 0.754503 0.490884 -0.435612
vn 0.435612 0.490884 -0.754503
vn -0.000000 0.490884 -0.871225
vn -0.435612 0.490884 -0.754503
vn -0.754503 0.490884 -0.435612
vn -0.871225 0.490884 -0.000000
vn -0.754503 0.490884 0.435612
vn -0.435613 0.490884 0.754503
vn -0.000000 0.490884 0.871225
vn 0.435612 0.490884 0.754503
vn 0.754502 0.490884 0.435614
vn 0.967311 0.253594 0.000000
vn 0.837716 0.253595 -0.483655
vn 0.483655 0.253594 -0.837716
vn 0.000000 0.253594 -0.967311
vn -0.483655 0.253594 -0.837716
vn -0.837716 0.253594 -0.483655
vn -0.967311 0.253594 -0.000000
vn -0.837716 0.253593 0.483656
vn -0.483655 0.253593 0.837716
vn -0.000000 0.253594 0.967311
vn 0.483655 0.253593 0.837716
vn 0.837716 0.253593 0.483655
vn 0.997904 0.064710 0.000000
vn 0.864210 0.064710 -0.498953
vn 0.498952 0.064710 -0.864210
vn 0.000000 0.064710 -0.997904
vn -0.498952 0.064710 -0.864210
vn -0.864210 0.064711 -0.498953
vn -0.997904 0.064711 -0.000000
vn -0.864210 0.064710 0.498952
vn -0.498952 0.064710 0.864210
vn -0.000000 0.064710 0.997904
vn 0.498952 0.064710 0.864211
vn 0.864210 0.064711 0.498953
vn 0.997904 -0.064711 -0.000000
vn 0.864210 -0.064711 -0.498953
vn 0.498952 -0.064710 -0.864210
vn -0.000000 -0.064710 -0.997904
vn -0.498952 -0.064710 -0.864210
vn -0.864210 -0.064710 -0.498953
vn -0.997904 -0.064711 -0.000000
vn -0.864210 -0.064710 0.498952
vn -0.498952 -0.064710 0.864210
vn -0.000000 -0.064710 0.997904
vn 0.498951 -0.064710 0.864211
vn 0.864210 -0.064710 0.498953
vn 0.967311 -0.253594 -0.000000
vn 0.837716 -0.253594 -0.483655
vn 0.483655 -0.253594 -0.837716
vn -0.000000 -0.253594 -0.967311
vn -0.483655 -0.253594 -0.837716
vn -0.837716 -0.253595 -0.483655
vn -0.967311 -0.253594 -0.000000
vn -0.837716 -0.253594 0.483655
vn -0.483655 -0.253594 0.837716
vn -0.000000 -0.253594 0.967311
vn 0.483655 -0.253594 0.837716
vn 0.837716 -0.253594 0.483655
vn 0.871225 -0.490884 -0.000000
vn 0.754503 -0.490884 -0.435612
vn 0.435612 -0.490884 -0.754503
vn 0.000000 -0.490884 -0.871225
vn -0.435612 -0.490884 -0.754503
vn -0.754503 -0.490884 -0.435612
vn -0.871225 -0.490884 -0.000000
vn -0.754503 -0.490884 0.435612
vn -0.435613 -0.490884 0.754503
vn -0.000000 -0.490884 0.871225
vn 0.435612 -0.490884 0.754503
vn 0.754502 -0.490884 0.435614
vn 0.717601 -0.696454 0.000000
vn 0.621461 -0.696454 -0.358801
vn 0.358801 -0.696454 -0.621461
vn 0.000000 -0.696454 -0.717602
vn -0.358801 -0.696454 -0.621461
vn -0.621461 -0.696454 -0.358801
vn -0.717601 -0.696454 -0.000000
vn -0.621460 -0.696455 0.358801
vn -0.358800 -0.696455 0.621461
vn 0.000000 -0.696454 0.717602
vn 0.358800 -0.696455 0.621461
vn 0.621460 -0.696455 0.358800
vn 0.515920 -0.856637 -0.000000
vn 0.446800 -0.856637 -0.257960
vn 0.257960 -0.856637 -0.446800
vn 0.000000 -0.856637 -0.515920
vn -0.257961 -0.856637 -0.446799
vn -0.446800 -0.856637 -0.257960
vn -0.515920 -0.856637 0.000000
vn -0.446800 -0.856637 0.257960
vn -0.257961 -0.856637 0.446800
vn 0.000000 -0.856637 0.515920
vn 0.257960 -0.856637 0.446800
vn 0.446800 -0.856637 0.257961
vn 0.278868 -0.960329 -0.000000
vn 0.241508 -0.960329 -0.139434
vn 0.139434 -0.960329 -0.241507
vn -0.000000 -0.960329 -0.278868
vn -0.139434 -0.960329 -0.241508
vn -0.241507 -0.960329 -0.139434
vn -0.278868 -0.960329 0.000000
vn -0.241508 -0.960329 0.139434
vn -0.139434 -0.960329 0.241507
vn 0.000000 -0.960329 0.278868
vn 0.139434 -0.960329 0.241508
vn 0.241507 -0.960329 0.139434
vn 0.000000 -1.000000 -0.000000
# 146 vertex normals

vt 0.500000 0.500000 0.000000
vt 0.629410 0.500000 0.000000
vt 0.612072 0.564705 0.000000
vt 0.564705 0.612072 0.000000
vt 0.500000 0.629410 0.000000
vt 0.435295 0.612072 0.000000
vt 0.387928 0.564705 0.000000
vt 0.370590 0.500000 0.000000
vt 0.387928 0.435295 0.000000
vt 0.435295 0.387928 0.000000
vt 0.500000 0.370590 0.000000
vt 0.564705 0.387928 0.000000
vt 0.612072 0.435295 0.000000
vt 0.750000 0.500000 0.000000
vt 0.716506 0.625000 0.000000
vt 0.625000 0.716506 0.000000
vt 0.500000 0.750000 0.000000
vt 0.375000 0.716506 0.000000
vt 0.283494 0.625000 0.000000
vt 0.250000 0.500000 0.000000
vt 0.283494 0.375000 0.000000
vt 0.375000 0.283494 0.000000
vt 0.500000 0.250000 0.000000
vt 0.625000 0.283494 0.000000
vt 0.716506 0.375000 0.000000
vt 0.853553 0.500000 0.000000
vt 0.806186 0.676777 0.000000
vt 0.676777 0.806186 0.000000
vt 0.500000 0.853553 0.000000
vt 0.323223 0.806186 0.000000
vt 0.193814 0.676777 0.000000
vt 0.146447 0.500000 0.000000
vt 0.193814 0.323223 0.000000
vt 0.323223 0.193814 0.000000
vt 0.500000 0.146447 0.000000
vt 0.676777 0.193814 0.000000
vt 0.806186 0.323223 0.000000
vt 0.933013 0.500000 0.000000
vt 0.875000 0.716506 0.000000
vt 0.716506 0.875000 0.000000
vt 0.500000 0.933013 0.000000
vt 0.283494 0.875000 0.000000
vt 0.125000 0.716506 0.000000
vt 0.066987 0.500000 0.000000
vt 0.125000 0.283494 0.000000
vt 0.283494 0.125000 0.000000
vt 0.500000 0.066987 0.000000
vt 0.716506 0.125000 0.000000
vt 0.875000 0.283493 0.000000
vt 0.982963 0.500000 0.000000
vt 0.918258 0.741481 0.000000
vt 0.741481 0.918258 0.000000
vt 0.500000 0.982963 0.000000
vt 0.258519 0.918258 0.000000
vt 0.081742 0.741481 0.000000
vt 0.017037 0.500000 0.000000
vt 0.081742 0.258519 0.000000
vt 0.258518 0.081742 0.000000
vt 0.500000 0.017037 0.000000
vt 0.741481 0.081742 0.000000
vt 0.918258 0.258518 0.000000
vt 1.000000 0.500000 0.000000
vt 0.933013 0.750000 0.000000
vt 0.750000 0.933013 0.000000
vt 0.500000 1.000000 0.000000
vt 0.250000 0.933013 0.000000
vt 0.066987 0.750000 0.000000
vt 0.000000 0.500000 0.000000
vt 0.066987 0.250000 0.000000
vt 0.250000 0.066987 0.000000
vt 0.500000 0.000000 0.000000
vt 0.750000 0.066987 0.000000
vt 0.933013 0.250000 0.000000
vt 0.083333 1.000000 0.000000
vt 0.000000 1.000000 0.000000
vt 0.000000 0.000000 0.000000
vt 0.083333 0.000000 0.000000
vt 0.166667 1.000000 0.000000
vt 0.166667 0.000000 0.000000
vt 0.250000 1.000000 0.000000
vt 0.250000 0.000000 0.000000
vt 0.333333 1.000000 0.000000
vt 0.333333 0.000000 0.000000
vt 0.416667 1.000000 0.000000
vt 0.416667 0.000000 0.000000
vt 0.583333 1.000000 0.000000
vt 0.583333 0.000000 0.000000
vt 0.666667 1.000000 0.000000
vt 0.666667 0.000000 0.000000
vt 0.750000 1.000000 0.000000
vt 0.750000 0.000000 0.000000
vt 0.833333 1.000000 0.000000
vt 0.833333 0.000000 0.000000
vt 0.916667 1.000000 0.000000
vt 0.916667 0.000000 0.000000
vt 1.000000 1.000000 0.000000
vt 1.000000 0.000000 0.000000
# 97 texture coords

g Capsule002
usemtl _CapsuleMaterial__25
s 1
f -146/-97/-146 -145/-96/-145 -144/-95/-144 
f -146/-97/-146 -144/-95/-144 -143/-94/-143 
f -146/-97/-146 -143/-94/-143 -142/-93/-142 
f -146/-97/-146 -142/-93/-142 -141/-92/-141 
f -146/-97/-146 -141/-92/-141 -140/-91/-140 
f -146/-97/-146 -140/-91/-140 -139/-90/-139 
f -146/-97/-146 -139/-90/-139 -138/-89/-138 
f -146/-97/-146 -138/-89/-138 -137/-88/-137 
f -146/-97/-146 -137/-88/-137 -136/-87/-136 
f -146/-97/-146 -136/-87/-136 -135/-86/-135 
f -146/-97/-146 -135/-86/-135 -134/-85/-134 
f -146/-97/-146 -134/-85/-134 -145/-96/-145 
f -144/-95/-144 -145/-96/-145 -133/-84/-133 -132/-83/-132 
f -143/-94/-143 -144/-95/-144 -132/-83/-132 -131/-82/-131 
f -142/-93/-142 -143/-94/-143 -131/-82/-131 -130/-81/-130 
f -141/-92/-141 -142/-93/-142 -130/-81/-130 -129/-80/-129 
f -140/-91/-140 -141/-92/-141 -129/-80/-129 -128/-79/-128 
f -139/-90/-139 -140/-91/-140 -128/-79/-128 -127/-78/-127 
f -138/-89/-138 -139/-90/-139 -127/-78/-127 -126/-77/-126 
f -137/-88/-137 -138/-89/-138 -126/-77/-126 -125/-76/-125 
f -136/-87/-136 -137/-88/-137 -125/-76/-125 -124/-75/-124 
f -135/-86/-135 -136/-87/-136 -124/-75/-124 -123/-74/-123 
f -134/-85/-134 -135/-86/-135 -123/-74/-123 -122/-73/-122 
f -145/-96/-145 -134/-85/-134 -122/-73/-122 -133/-84/-133 
f -132/-83/-132 -133/-84/-133 -121/-72/-121 -120/-71/-120 
f -131/-82/-131 -132/-83/-132 -120/-71/-120 -119/-70/-119 
f -130/-81/-130 -131/-82/-131 -119/-70/-119 -118/-69/-118 
f -129/-80/-129 -130/-81/-130 -118/-69/-118 -117/-68/-117 
f -128/-79/-128 -129/-80/-129 -117/-68/-117 -116/-67/-116 
f -127/-78/-127 -128/-79/-128 -116/-67/-116 -115/-66/-115 
f -126/-77/-126 -127/-78/-127 -115/-66/-115 -114/-65/-114 
f -125/-76/-125 -126/-77/-126 -114/-65/-114 -113/-64/-113 
f -124/-75/-124 -125/-76/-125 -113/-64/-113 -112/-63/-112 
f -123/-74/-123 -124/-75/-124 -112/-63/-112 -111/-62/-111 
f -122/-73/-122 -123/-74/-123 -111/-62/-111 -110/-61/-110 
f -133/-84/-133 -122/-73/-122 -110/-61/-110 -121/-72/-121 
f -120/-71/-120 -121/-72/-121 -109/-60/-109 -108/-59/-108 
f -119/-70/-119 -120/-71/-120 -108/-59/-108 -107/-58/-107 
f -118/-69/-118 -119/-70/-119 -107/-58/-107 -106/-57/-106 
f -117/-68/-117 -118/-69/-118 -106/-57/-106 -105/-56/-105 
f -116/-67/-116 -117/-68/-117 -105/-56/-105 -104/-55/-104 
f -115/-66/-115 -116/-67/-116 -104/-55/-104 -103/-54/-103 
f -114/-65/-114 -115/-66/-115 -103/-54/-103 -102/-53/-102 
f -113/-64/-113 -114/-65/-114 -102/-53/-102 -101/-52/-101 
f -112/-63/-112 -113/-64/-113 -101/-52/-101 -100/-51/-100 
f -111/-62/-111 -112/-63/-112 -100/-51/-100 -99/-50/-99 
f -110/-61/-110 -111/-62/-111 -99/-50/-99 -98/-49/-98 
f -121/-72/-121 -110/-61/-110 -98/-49/-98 -109/-60/-109 
f -108/-59/-108 -109/-60/-109 -97/-48/-97 -96/-47/-96 
f -107/-58/-107 -108/-59/-108 -96/-47/-96 -95/-46/-95 
f -106/-57/-106 -107/-58/-107 -95/-46/-95 -94/-45/-94 
f -105/-56/-105 -106/-57/-106 -94/-45/-94 -93/-44/-93 
f -104/-55/-104 -105/-56/-105 -93/-44/-93 -92/-43/-92 
f -103/-54/-103 -104/-55/-104 -92/-43/-92 -91/-42/-91 
f -102/-53/-102 -103/-54/-103 -91/-42/-91 -90/-41/-90 
f -101/-52/-101 -102/-53/-102 -90/-41/-90 -89/-40/-89 
f -100/-51/-100 -101/-52/-101 -89/-40/-89 -88/-39/-88 
f -99/-50/-99 -100/-51/-100 -88/-39/-88 -87/-38/-87 
f -98/-49/-98 -99/-50/-99 -87/-38/-87 -86/-37/-86 
f -109/-60/-109 -98/-49/-98 -86/-37/-86 -97/-48/-97 
f -96/-47/-96 -97/-48/-97 -85/-36/-85 -84/-35/-84 
f -95/-46/-95 -96/-47/-96 -84/-35/-84 -83/-34/-83 
f -94/-45/-94 -95/-46/-95 -83/-34/-83 -82/-33/-82 
f -93/-44/-93 -94/-45/-94 -82/-33/-82 -81/-32/-81 
f -92/-43/-92 -93/-44/-93 -81/-32/-81 -80/-31/-80 
f -91/-42/-91 -92/-43/-92 -80/-31/-80 -79/-30/-79 
f -90/-41/-90 -91/-42/-91 -79/-30/-79 -78/-29/-78 
f -89/-40/-89 -90/-41/-90 -78/-29/-78 -77/-28/-77 
f -88/-39/-88 -89/-40/-89 -77/-28/-77 -76/-27/-76 
f -87/-38/-87 -88/-39/-88 -76/-27/-76 -75/-26/-75 
f -86/-37/-86 -87/-38/-87 -75/-26/-75 -74/-25/-74 
f -97/-48/-97 -86/-37/-86 -74/-25/-74 -85/-36/-85 
f -84/-24/-84 -85/-23/-85 -73/-22/-73 -72/-21/-72 
f -83/-20/-83 -84/-24/-84 -72/-21/-72 -71/-19/-71 
f -82/-18/-82 -83/-20/-83 -71/-19/-71 -70/-17/-70 
f -81/-16/-81 -82/-18/-82 -70/-17/-70 -69/-15/-69 
f -80/-14/-80 -81/-16/-81 -69/-15/-69 -68/-13/-68 
f -79/-33/-79 -80/-14/-80 -68/-13/-68 -67/-27/-67 
f -78/-12/-78 -79/-33/-79 -67/-27/-67 -66/-11/-66 
f -77/-10/-77 -78/-12/-78 -66/-11/-66 -65/-9/-65 
f -76/-8/-76 -77/-10/-77 -65/-9/-65 -64/-7/-64 
f -75/-6/-75 -76/-8/-76 -64/-7/-64 -63/-5/-63 
f -74/-4/-74 -75/-6/-75 -63/-5/-63 -62/-3/-62 
f -85/-2/-85 -74/-4/-74 -62/-3/-62 -73/-1/-73 
f -72/-35/-72 -73/-36/-73 -61/-48/-61 -60/-47/-60 
f -71/-34/-71 -72/-35/-72 -60/-47/-60 -59/-46/-59 
f -70/-33/-70 -71/-34/-71 -59/-46/-59 -58/-45/-58 
f -69/-32/-69 -70/-33/-70 -58/-45/-58 -57/-44/-57 
f -68/-31/-68 -69/-32/-69 -57/-44/-57 -56/-43/-56 
f -67/-30/-67 -68/-31/-68 -56/-43/-56 -55/-42/-55 
f -66/-29/-66 -67/-30/-67 -55/-42/-55 -54/-41/-54 
f -65/-28/-65 -66/-29/-66 -54/-41/-54 -53/-40/-53 
f -64/-27/-64 -65/-28/-65 -53/-40/-53 -52/-39/-52 
f -63/-26/-63 -64/-27/-64 -52/-39/-52 -51/-38/-51 
f -62/-25/-62 -63/-26/-63 -51/-38/-51 -50/-37/-50 
f -73/-36/-73 -62/-25/-62 -50/-37/-50 -61/-48/-61 
f -60/-47/-60 -61/-48/-61 -49/-60/-49 -48/-59/-48 
f -59/-46/-59 -60/-47/-60 -48/-59/-48 -47/-58/-47 
f -58/-45/-58 -59/-46/-59 -47/-58/-47 -46/-57/-46 
f -57/-44/-57 -58/-45/-58 -46/-57/-46 -45/-56/-45 
f -56/-43/-56 -57/-44/-57 -45/-56/-45 -44/-55/-44 
f -55/-42/-55 -56/-43/-56 -44/-55/-44 -43/-54/-43 
f -54/-41/-54 -55/-42/-55 -43/-54/-43 -42/-53/-42 
f -53/-40/-53 -54/-41/-54 -42/-53/-42 -41/-52/-41 
f -52/-39/-52 -53/-40/-53 -41/-52/-41 -40/-51/-40 
f -51/-38/-51 -52/-39/-52 -40/-51/-40 -39/-50/-39 
f -50/-37/-50 -51/-38/-51 -39/-50/-39 -38/-49/-38 
f -61/-48/-61 -50/-37/-50 -38/-49/-38 -49/-60/-49 
f -48/-59/-48 -49/-60/-49 -37/-72/-37 -36/-71/-36 
f -47/-58/-47 -48/-59/-48 -36/-71/-36 -35/-70/-35 
f -46/-57/-46 -47/-58/-47 -35/-70/-35 -34/-69/-34 
f -45/-56/-45 -46/-57/-46 -34/-69/-34 -33/-68/-33 
f -44/-55/-44 -45/-56/-45 -33/-68/-33 -32/-67/-32 
f -43/-54/-43 -44/-55/-44 -32/-67/-32 -31/-66/-31 
f -42/-53/-42 -43/-54/-43 -31/-66/-31 -30/-65/-30 
f -41/-52/-41 -42/-53/-42 -30/-65/-30 -29/-64/-29 
f -40/-51/-40 -41/-52/-41 -29/-64/-29 -28/-63/-28 
f -39/-50/-39 -40/-51/-40 -28/-63/-28 -27/-62/-27 
f -38/-49/-38 -39/-50/-39 -27/-62/-27 -26/-61/-26 
f -49/-60/-49 -38/-49/-38 -26/-61/-26 -37/-72/-37 
f -36/-71/-36 -37/-72/-37 -25/-84/-25 -24/-83/-24 
f -35/-70/-35 -36/-71/-36 -24/-83/-24 -23/-82/-23 
f -34/-69/-34 -35/-70/-35 -23/-82/-23 -22/-81/-22 
f -33/-68/-33 -34/-69/-34 -22/-81/-22 -21/-80/-21 
f -32/-67/-32 -33/-68/-33 -21/-80/-21 -20/-79/-20 
f -31/-66/-31 -32/-67/-32 -20/-79/-20 -19/-78/-19 
f -30/-65/-30 -31/-66/-31 -19/-78/-19 -18/-77/-18 
f -29/-64/-29 -30/-65/-30 -18/-77/-18 -17/-76/-17 
f -28/-63/-28 -29/-64/-29 -17/-76/-17 -16/-75/-16 
f -27/-62/-27 -28/-63/-28 -16/-75/-16 -15/-74/-15 
f -26/-61/-26 -27/-62/-27 -15/-74/-15 -14/-73/-14 
f -37/-72/-37 -26/-61/-26 -14/-73/-14 -25/-84/-25 
f -24/-83/-24 -25/-84/-25 -13/-96/-13 -12/-95/-12 
f -23/-82/-23 -24/-83/-24 -12/-95/-12 -11/-94/-11 
f -22/-81/-22 -23/-82/-23 -11/-94/-11 -10/-93/-10 
f -21/-80/-21 -22/-81/-22 -10/-93/-10 -9/-92/-9 
f -20/-79/-20 -21/-80/-21 -9/-92/-9 -8/-91/-8 
f -19/-78/-19 -20/-79/-20 -8/-91/-8 -7/-90/-7 
f -18/-77/-18 -19/-78/-19 -7/-90/-7 -6/-89/-6 
f -17/-76/-17 -18/-77/-18 -6/-89/-6 -5/-88/-5 
f -16/-75/-16 -17/-76/-17 -5/-88/-5 -4/-87/-4 
f -15/-74/-15 -16/-75/-16 -4/-87/-4 -3/-86/-3 
f -14/-73/-14 -15/-74/-15 -3/-86/-3 -2/-85/-2 
f -25/-84/-25 -14/-73/-14 -2/-85/-2 -13/-96/-13 
f -13/-96/-13 -1/-97/-1 -12/-95/-12 
f -12/-95/-12 -1/-97/-1 -11/-94/-11 
f -11/-94/-11 -1/-97/-1 -10/-93/-10 
f -10/-93/-10 -1/-97/-1 -9/-92/-9 
f -9/-92/-9 -1/-97/-1 -8/-91/-8 
f -8/-91/-8 -1/-97/-1 -7/-90/-7 
f -7/-90/-7 -1/-97/-1 -6/-89/-6 
f -6/-89/-6 -1/-97/-1 -5/-88/-5 
f -5/-88/-5 -1/-97/-1 -4/-87/-4 
f -4/-87/-4 -1/-97/-1 -3/-86/-3 
f -3/-86/-3 -1/-97/-1 -2/-85/-2 
f -2/-85/-2 -1/-97/-1 -13/-96/-13 
# 132 polygons - 24 triangles

