# 3ds Max Wavefront OBJ Exporter v0.97b - (c)2007 guruware
# File Created: 27.05.2012 17:43:07

mtllib Close stair.mtl

#
# object StraightStair001
#

v  -109.630737 52.799690 58.201118
v  -109.247345 52.799690 -58.917603
v  -89.732727 52.799690 58.266251
v  -89.349335 52.799690 -58.852463
v  -89.732697 43.199745 58.266251
v  -89.349335 43.199745 -58.852463
v  -69.834686 43.199745 58.331390
v  -69.451324 43.199745 -58.787331
v  -69.834717 33.599800 58.331390
v  -69.451324 33.599800 -58.787331
v  -49.936707 33.599800 58.396523
v  -49.553314 33.599800 -58.722198
v  -49.936737 23.999863 58.396523
v  -49.553345 23.999863 -58.722198
v  -30.038727 23.999863 58.461662
v  -29.655334 23.999863 -58.657059
v  -30.038696 14.399918 58.461662
v  -29.655304 14.399918 -58.657059
v  -10.140686 14.399918 58.526794
v  -9.757309 14.399918 -58.591927
v  -10.140701 4.799973 58.526794
v  -9.757324 4.799973 -58.591927
v  9.757294 4.799973 58.591927
v  10.140686 4.799973 -58.526787
v  9.757324 -4.799973 58.591927
v  10.140701 -4.799973 -58.526787
v  29.655319 -4.799973 58.657066
v  30.038696 -4.799973 -58.461655
v  29.655304 -14.399914 58.657066
v  30.038696 -14.399914 -58.461655
v  49.553314 -14.399914 58.722198
v  49.936707 -14.399914 -58.396523
v  49.553314 -23.999859 58.722198
v  49.936707 -23.999859 -58.396523
v  69.451324 -23.999859 58.787338
v  69.834717 -23.999859 -58.331383
v  69.451324 -33.599800 58.787338
v  69.834717 -33.599800 -58.331383
v  89.349335 -33.599800 58.852470
v  89.732712 -33.599800 -58.266251
v  89.349335 -43.199745 58.852470
v  89.732712 -43.199745 -58.266251
v  109.247330 -43.199745 58.917603
v  109.630714 -43.199745 -58.201111
v  109.247337 -52.799690 58.917603
v  109.630722 -52.799690 -58.201111
v  -109.630707 -52.799690 58.201118
v  -109.247345 -52.799690 -58.917603
# 48 vertices

vn -0.003273 -0.000000 0.999995
vn 0.003274 0.000000 -0.999995
vn -0.003274 0.000000 0.999995
vn 0.003273 0.000000 -0.999995
vn -0.003273 0.000000 0.999995
vn 0.003273 -0.000000 -0.999995
vn -0.003274 -0.000000 0.999995
vn 0.003274 -0.000000 -0.999995
vn 0.000000 1.000000 -0.000000
vn 0.999995 0.000003 0.003273
vn 0.999995 0.000000 0.003274
vn 0.999995 -0.000003 0.003274
vn 0.999995 0.000000 0.003273
vn 0.999995 0.000003 0.003274
vn 0.999995 -0.000002 0.003273
vn 0.999995 0.000002 0.003274
vn 0.999995 -0.000002 0.003274
vn 0.999995 0.000001 0.003273
vn 0.000000 -1.000000 -0.000000
vn -0.999995 -0.000000 -0.003274
vn -0.999995 0.000000 -0.003273
# 21 vertex normals

vt 0.091159 0.908682 0.006022
vt 0.091159 0.999500 0.006022
vt 0.000500 0.999500 0.006574
vt 0.000500 0.000500 0.006574
vt 0.997754 0.999500 0.999500
vt 0.907094 0.999500 0.998948
vt 0.907094 0.908682 0.998948
vt 0.997754 0.000500 0.999500
vt 0.181818 0.817864 0.005470
vt 0.181819 0.908682 0.005470
vt 0.816435 0.908682 0.998396
vt 0.816435 0.817864 0.998396
vt 0.272478 0.727046 0.004918
vt 0.272478 0.817864 0.004918
vt 0.725775 0.817864 0.997844
vt 0.725775 0.727046 0.997844
vt 0.363137 0.636227 0.004365
vt 0.363137 0.727046 0.004365
vt 0.635116 0.727046 0.997291
vt 0.635116 0.636227 0.997291
vt 0.453797 0.545409 0.003813
vt 0.453797 0.636227 0.003813
vt 0.544456 0.636227 0.996739
vt 0.544456 0.545409 0.996739
vt 0.544456 0.454591 0.003261
vt 0.544456 0.545409 0.003261
vt 0.453797 0.545409 0.996187
vt 0.453797 0.454591 0.996187
vt 0.635116 0.363773 0.002709
vt 0.635116 0.454591 0.002709
vt 0.363137 0.454591 0.995635
vt 0.363137 0.363773 0.995635
vt 0.725775 0.272954 0.002156
vt 0.725775 0.363773 0.002156
vt 0.272478 0.363773 0.995082
vt 0.272478 0.272954 0.995082
vt 0.816435 0.182136 0.001604
vt 0.816435 0.272954 0.001604
vt 0.181818 0.272954 0.994530
vt 0.181818 0.182136 0.994530
vt 0.907094 0.091318 0.001052
vt 0.907094 0.182136 0.001052
vt 0.091159 0.182136 0.993978
vt 0.091159 0.091318 0.993978
vt 0.997754 0.000500 0.000500
vt 0.997754 0.091318 0.000500
vt 0.000500 0.091318 0.993426
vt 0.000500 0.000500 0.993426
vt 0.000500 0.006574 0.999500
vt 0.091159 0.006022 0.999500
vt 0.092906 0.998948 0.999500
vt 0.002246 0.999500 0.999500
vt 0.006022 0.999500 0.091159
vt 0.006022 0.908682 0.091159
vt 0.998948 0.908682 0.092906
vt 0.998948 0.999500 0.092906
vt 0.091159 0.006022 0.908682
vt 0.181819 0.005470 0.908682
vt 0.183565 0.998396 0.908682
vt 0.092906 0.998948 0.908682
vt 0.005470 0.908682 0.181819
vt 0.005470 0.817864 0.181818
vt 0.998396 0.817864 0.183565
vt 0.998396 0.908682 0.183565
vt 0.181818 0.005470 0.817864
vt 0.272478 0.004918 0.817864
vt 0.274225 0.997844 0.817864
vt 0.183565 0.998396 0.817864
vt 0.004918 0.817864 0.272478
vt 0.004918 0.727046 0.272478
vt 0.997844 0.727046 0.274225
vt 0.997844 0.817864 0.274225
vt 0.272478 0.004918 0.727046
vt 0.363137 0.004365 0.727046
vt 0.364884 0.997291 0.727046
vt 0.274225 0.997844 0.727046
vt 0.004365 0.727046 0.363137
vt 0.004365 0.636227 0.363137
vt 0.997291 0.636227 0.364884
vt 0.997291 0.727046 0.364884
vt 0.363137 0.004365 0.636227
vt 0.453797 0.003813 0.636227
vt 0.455544 0.996739 0.636227
vt 0.364884 0.997291 0.636227
vt 0.003813 0.636227 0.453797
vt 0.003813 0.545409 0.453797
vt 0.996739 0.545409 0.455544
vt 0.996739 0.636227 0.455544
vt 0.453797 0.003813 0.545409
vt 0.544456 0.003261 0.545409
vt 0.546203 0.996187 0.545409
vt 0.455544 0.996739 0.545409
vt 0.003261 0.545409 0.544456
vt 0.003261 0.454591 0.544456
vt 0.996187 0.454591 0.546203
vt 0.996187 0.545409 0.546203
vt 0.544456 0.003261 0.454591
vt 0.635116 0.002709 0.454591
vt 0.636863 0.995635 0.454591
vt 0.546203 0.996187 0.454591
vt 0.002709 0.454591 0.635116
vt 0.002709 0.363773 0.635116
vt 0.995635 0.363773 0.636863
vt 0.995635 0.454591 0.636863
vt 0.635116 0.002709 0.363773
vt 0.725775 0.002156 0.363773
vt 0.727522 0.995082 0.363773
vt 0.636863 0.995635 0.363773
vt 0.002156 0.363773 0.725775
vt 0.002156 0.272954 0.725775
vt 0.995082 0.272954 0.727522
vt 0.995082 0.363773 0.727522
vt 0.725775 0.002156 0.272954
vt 0.816435 0.001604 0.272954
vt 0.818182 0.994530 0.272954
vt 0.727522 0.995082 0.272954
vt 0.001604 0.272954 0.816435
vt 0.001604 0.182136 0.816435
vt 0.994530 0.182136 0.818182
vt 0.994530 0.272954 0.818182
vt 0.816435 0.001604 0.182136
vt 0.907094 0.001052 0.182136
vt 0.908841 0.993978 0.182136
vt 0.818182 0.994530 0.182136
vt 0.001052 0.182136 0.907094
vt 0.001052 0.091318 0.907094
vt 0.993978 0.091318 0.908841
vt 0.993978 0.182136 0.908841
vt 0.907094 0.001052 0.091318
vt 0.997754 0.000500 0.091318
vt 0.999500 0.993426 0.091318
vt 0.908841 0.993978 0.091318
vt 0.000500 0.091318 0.997754
vt 0.000500 0.000500 0.997754
vt 0.993426 0.000500 0.999500
vt 0.993426 0.091318 0.999500
vt 0.002246 0.000500 0.000500
vt 0.999500 0.006574 0.000500
vt 0.997754 0.999500 0.000500
vt 0.000500 0.993426 0.000500
vt 0.993426 0.000500 0.000500
vt 0.993426 0.999500 0.000500
vt 0.000500 0.999500 0.002246
vt 0.000500 0.000500 0.002246
# 144 texture coords

g StraightStair001
usemtl _Close_stair_Close_stairMaterial__25
s off
f -44/-144/-21 -46/-143/-21 -48/-142/-21 
f -48/-142/-21 -2/-141/-21 -44/-144/-21 
f -47/-140/-20 -45/-139/-20 -43/-138/-20 
f -43/-138/-20 -1/-137/-20 -47/-140/-20 
f -40/-136/-19 -42/-135/-19 -44/-144/-19 
f -44/-144/-19 -2/-141/-19 -40/-136/-19 
f -43/-138/-18 -41/-134/-18 -39/-133/-18 
f -39/-133/-18 -1/-137/-18 -43/-138/-18 
f -36/-132/-17 -38/-131/-17 -40/-136/-17 
f -40/-136/-21 -2/-141/-21 -36/-132/-21 
f -39/-133/-16 -37/-130/-16 -35/-129/-16 
f -35/-129/-18 -1/-137/-18 -39/-133/-18 
f -32/-128/-15 -34/-127/-15 -36/-132/-15 
f -36/-132/-19 -2/-141/-19 -32/-128/-19 
f -35/-129/-20 -33/-126/-20 -31/-125/-20 
f -31/-125/-14 -1/-137/-14 -35/-129/-14 
f -28/-124/-17 -30/-123/-17 -32/-128/-17 
f -32/-128/-21 -2/-141/-21 -28/-124/-21 
f -31/-125/-16 -29/-122/-16 -27/-121/-16 
f -27/-121/-18 -1/-137/-18 -31/-125/-18 
f -24/-120/-21 -26/-119/-21 -28/-124/-21 
f -28/-124/-21 -2/-141/-21 -24/-120/-21 
f -27/-121/-20 -25/-118/-20 -23/-117/-20 
f -23/-117/-14 -1/-137/-14 -27/-121/-14 
f -20/-116/-19 -22/-115/-19 -24/-120/-19 
f -24/-120/-19 -2/-141/-19 -20/-116/-19 
f -23/-117/-18 -21/-114/-18 -19/-113/-18 
f -19/-113/-18 -1/-137/-18 -23/-117/-18 
f -16/-112/-17 -18/-111/-17 -20/-116/-17 
f -20/-116/-21 -2/-141/-21 -16/-112/-21 
f -19/-113/-18 -17/-110/-18 -15/-109/-18 
f -15/-109/-18 -1/-137/-18 -19/-113/-18 
f -12/-108/-19 -14/-107/-19 -16/-112/-19 
f -16/-112/-17 -2/-141/-17 -12/-108/-17 
f -15/-109/-20 -13/-106/-20 -11/-105/-20 
f -11/-105/-16 -1/-137/-16 -15/-109/-16 
f -8/-104/-17 -10/-103/-17 -12/-108/-17 
f -12/-108/-21 -2/-141/-21 -8/-104/-21 
f -11/-105/-18 -9/-102/-18 -7/-101/-18 
f -7/-101/-18 -1/-137/-18 -11/-105/-18 
f -4/-100/-21 -6/-99/-21 -8/-104/-21 
f -8/-104/-21 -2/-141/-21 -4/-100/-21 
f -7/-101/-20 -5/-98/-20 -3/-97/-20 
f -3/-97/-16 -1/-137/-16 -7/-101/-16 
f -48/-96/-13 -46/-95/-13 -45/-94/-13 
f -45/-94/-13 -47/-93/-13 -48/-96/-13 
f -46/-92/-12 -44/-91/-12 -43/-90/-12 
f -43/-90/-11 -45/-89/-11 -46/-92/-11 
f -44/-88/-13 -42/-87/-13 -41/-86/-13 
f -41/-86/-13 -43/-85/-13 -44/-88/-13 
f -42/-84/-10 -40/-83/-10 -39/-82/-10 
f -39/-82/-9 -41/-81/-9 -42/-84/-9 
f -40/-80/-13 -38/-79/-13 -37/-78/-13 
f -37/-78/-13 -39/-77/-13 -40/-80/-13 
f -38/-76/-10 -36/-75/-10 -35/-74/-10 
f -35/-74/-10 -37/-73/-10 -38/-76/-10 
f -36/-72/-13 -34/-71/-13 -33/-70/-13 
f -33/-70/-13 -35/-69/-13 -36/-72/-13 
f -34/-68/-8 -32/-67/-8 -31/-66/-8 
f -31/-66/-8 -33/-65/-8 -34/-68/-8 
f -32/-64/-13 -30/-63/-13 -29/-62/-13 
f -29/-62/-13 -31/-61/-13 -32/-64/-13 
f -30/-60/-7 -28/-59/-7 -27/-58/-7 
f -27/-58/-7 -29/-57/-7 -30/-60/-7 
f -28/-56/-13 -26/-55/-13 -25/-54/-13 
f -25/-54/-13 -27/-53/-13 -28/-56/-13 
f -26/-52/-12 -24/-51/-12 -23/-50/-12 
f -23/-50/-6 -25/-49/-6 -26/-52/-6 
f -24/-48/-13 -22/-47/-13 -21/-46/-13 
f -21/-46/-13 -23/-45/-13 -24/-48/-13 
f -22/-44/-5 -20/-43/-5 -19/-42/-5 
f -19/-42/-9 -21/-41/-9 -22/-44/-9 
f -20/-40/-13 -18/-39/-13 -17/-38/-13 
f -17/-38/-13 -19/-37/-13 -20/-40/-13 
f -18/-36/-11 -16/-35/-11 -15/-34/-11 
f -15/-34/-11 -17/-33/-11 -18/-36/-11 
f -16/-32/-13 -14/-31/-13 -13/-30/-13 
f -13/-30/-13 -15/-29/-13 -16/-32/-13 
f -14/-28/-11 -12/-27/-11 -11/-26/-11 
f -11/-26/-11 -13/-25/-11 -14/-28/-11 
f -12/-24/-13 -10/-23/-13 -9/-22/-13 
f -9/-22/-13 -11/-21/-13 -12/-24/-13 
f -10/-20/-9 -8/-19/-9 -7/-18/-9 
f -7/-18/-9 -9/-17/-9 -10/-20/-9 
f -8/-16/-13 -6/-15/-13 -5/-14/-13 
f -5/-14/-13 -7/-13/-13 -8/-16/-13 
f -6/-12/-4 -4/-11/-4 -3/-10/-4 
f -3/-10/-4 -5/-9/-4 -6/-12/-4 
f -4/-8/-3 -2/-7/-3 -1/-6/-3 
f -1/-6/-3 -3/-5/-3 -4/-8/-3 
f -2/-4/-2 -48/-3/-2 -47/-2/-2 
f -47/-2/-1 -1/-1/-1 -2/-4/-1 
# 0 polygons - 92 triangles

