# 3ds Max Wavefront OBJ Exporter v0.97b - (c)2007 guruware
# File Created: 27.05.2012 16:28:19

mtllib Geosphere.mtl

#
# object GeoSphere001
#

v  0.000000 99.905128 -0.000000
v  99.905121 0.000000 -0.000000
v  0.000000 0.000000 -99.905121
v  -99.905121 0.000000 -0.000000
v  0.000000 0.000000 99.905121
v  0.000000 -99.905128 -0.000000
v  30.872375 95.015427 -0.000000
v  58.722748 80.824951 -0.000000
v  80.824951 58.722759 -0.000000
v  95.015427 30.872383 -0.000000
v  0.000000 95.015427 -30.872375
v  0.000000 80.824951 -58.722748
v  0.000000 58.722759 -80.824951
v  0.000000 30.872383 -95.015427
v  -30.872375 95.015427 -0.000000
v  -58.722748 80.824951 -0.000000
v  -80.824951 58.722759 -0.000000
v  -95.015442 30.872383 -0.000000
v  0.000000 95.015427 30.872375
v  0.000000 80.824951 58.722748
v  0.000000 58.722759 80.824951
v  0.000000 30.872383 95.015411
v  30.872375 -95.015427 -0.000000
v  58.722748 -80.824951 -0.000000
v  80.824951 -58.722759 -0.000000
v  95.015427 -30.872383 -0.000000
v  0.000000 -95.015427 -30.872375
v  0.000000 -80.824951 -58.722748
v  0.000000 -58.722759 -80.824951
v  0.000000 -30.872383 -95.015427
v  -30.872375 -95.015427 -0.000000
v  -58.722748 -80.824951 -0.000000
v  -80.824951 -58.722759 -0.000000
v  -95.015442 -30.872383 -0.000000
v  0.000000 -95.015427 30.872375
v  0.000000 -80.824951 58.722748
v  0.000000 -58.722759 80.824951
v  0.000000 -30.872383 95.015411
v  95.015427 0.000000 -30.872375
v  80.824951 0.000000 -58.722748
v  58.722748 0.000000 -80.824951
v  30.872375 0.000000 -95.015427
v  -30.872375 0.000000 -95.015427
v  -58.722748 0.000000 -80.824951
v  -80.824951 0.000000 -58.722748
v  -95.015442 0.000000 -30.872375
v  -95.015442 0.000000 30.872375
v  -80.824951 0.000000 58.722748
v  -58.722748 0.000000 80.824951
v  -30.872375 0.000000 95.015411
v  30.872375 0.000000 95.015411
v  58.722748 0.000000 80.824951
v  80.824951 0.000000 58.722748
v  95.015427 0.000000 30.872375
v  32.281738 88.864021 -32.281738
v  62.501801 70.124519 -34.016327
v  34.016327 70.124519 -62.501801
v  85.341217 38.909222 -34.409058
v  64.191071 41.713886 -64.191071
v  34.409058 38.909222 -85.341217
v  -32.281738 88.864021 -32.281738
v  -34.016327 70.124519 -62.501801
v  -62.501801 70.124519 -34.016327
v  -34.409058 38.909222 -85.341217
v  -64.191071 41.713886 -64.191071
v  -85.341217 38.909222 -34.409058
v  -32.281738 88.864021 32.281738
v  -62.501801 70.124519 34.016327
v  -34.016327 70.124519 62.501801
v  -85.341217 38.909222 34.409058
v  -64.191071 41.713886 64.191071
v  -34.409058 38.909222 85.341217
v  32.281738 88.864021 32.281738
v  34.016327 70.124519 62.501801
v  62.501801 70.124519 34.016327
v  34.409058 38.909222 85.341217
v  64.191071 41.713886 64.191071
v  85.341217 38.909222 34.409058
v  32.281738 -88.864021 -32.281738
v  34.016327 -70.124519 -62.501801
v  62.501801 -70.124519 -34.016327
v  34.409058 -38.909222 -85.341217
v  64.191071 -41.713886 -64.191071
v  85.341217 -38.909222 -34.409058
v  -32.281738 -88.864021 -32.281738
v  -62.501801 -70.124519 -34.016327
v  -34.016327 -70.124519 -62.501801
v  -85.341217 -38.909222 -34.409058
v  -64.191071 -41.713886 -64.191071
v  -34.409058 -38.909222 -85.341217
v  -32.281738 -88.864021 32.281738
v  -34.016327 -70.124519 62.501801
v  -62.501801 -70.124519 34.016327
v  -34.409058 -38.909222 85.341217
v  -64.191071 -41.713886 64.191071
v  -85.341217 -38.909222 34.409058
v  32.281738 -88.864021 32.281738
v  62.501801 -70.124519 34.016327
v  34.016327 -70.124519 62.501801
v  85.341217 -38.909222 34.409058
v  64.191071 -41.713886 64.191071
v  34.409058 -38.909222 85.341217
# 102 vertices

vn 0.000000 1.000000 -0.000000
vn 0.305823 0.952088 -0.000000
vn -0.000000 0.952088 -0.305823
vn 0.584292 0.811543 0.000000
vn 0.325360 0.887852 -0.325360
vn 0.000000 0.811543 -0.584292
vn 0.808923 0.587915 0.000000
vn 0.628383 0.695754 -0.347937
vn 0.347937 0.695754 -0.628383
vn 0.000000 0.587915 -0.808923
vn 0.953169 0.302440 -0.000000
vn 0.854420 0.381987 -0.352210
vn 0.645432 0.408454 -0.645432
vn 0.352210 0.381987 -0.854420
vn -0.000000 0.302440 -0.953169
vn 1.000000 0.000000 -0.000000
vn 0.949970 0.000000 -0.312341
vn 0.808181 0.000000 -0.588934
vn 0.588934 0.000000 -0.808181
vn 0.312341 0.000000 -0.949970
vn 0.000000 0.000000 -1.000000
vn -0.305823 0.952088 0.000000
vn -0.325360 0.887852 -0.325360
vn -0.584292 0.811543 -0.000000
vn -0.347937 0.695754 -0.628383
vn -0.628383 0.695754 -0.347937
vn -0.808923 0.587915 -0.000000
vn -0.352210 0.381987 -0.854420
vn -0.645432 0.408454 -0.645432
vn -0.854420 0.381987 -0.352210
vn -0.953168 0.302440 -0.000000
vn -0.312341 0.000000 -0.949970
vn -0.588934 0.000000 -0.808181
vn -0.808181 0.000000 -0.588934
vn -0.949970 0.000000 -0.312341
vn -1.000000 0.000000 -0.000000
vn 0.000000 0.952088 0.305823
vn -0.325360 0.887852 0.325360
vn -0.000000 0.811543 0.584292
vn -0.628383 0.695754 0.347937
vn -0.347937 0.695754 0.628383
vn -0.000000 0.587914 0.808923
vn -0.854420 0.381987 0.352210
vn -0.645432 0.408454 0.645432
vn -0.352210 0.381987 0.854420
vn 0.000000 0.302440 0.953169
vn -0.949970 -0.000000 0.312341
vn -0.808181 -0.000000 0.588934
vn -0.588934 0.000000 0.808181
vn -0.312341 -0.000000 0.949970
vn 0.000000 0.000000 1.000000
vn 0.325360 0.887852 0.325360
vn 0.347937 0.695754 0.628383
vn 0.628383 0.695754 0.347937
vn 0.352210 0.381987 0.854420
vn 0.645432 0.408454 0.645432
vn 0.854420 0.381987 0.352210
vn 0.312341 0.000000 0.949970
vn 0.588934 0.000000 0.808181
vn 0.808181 0.000000 0.588934
vn 0.949970 0.000000 0.312341
vn 0.000000 -1.000000 -0.000000
vn 0.000000 -0.952088 -0.305823
vn 0.305823 -0.952088 0.000000
vn -0.000000 -0.811543 -0.584292
vn 0.325360 -0.887852 -0.325360
vn 0.584292 -0.811543 -0.000000
vn -0.000000 -0.587915 -0.808923
vn 0.347937 -0.695754 -0.628383
vn 0.628383 -0.695754 -0.347937
vn 0.808923 -0.587915 -0.000000
vn 0.000000 -0.302440 -0.953169
vn 0.352210 -0.381987 -0.854420
vn 0.645432 -0.408454 -0.645432
vn 0.854420 -0.381987 -0.352210
vn 0.953169 -0.302440 0.000000
vn -0.305823 -0.952088 -0.000000
vn -0.584292 -0.811543 0.000000
vn -0.325360 -0.887852 -0.325360
vn -0.808923 -0.587915 0.000000
vn -0.628383 -0.695754 -0.347937
vn -0.347937 -0.695754 -0.628383
vn -0.953168 -0.302440 0.000000
vn -0.854420 -0.381987 -0.352210
vn -0.645432 -0.408454 -0.645432
vn -0.352210 -0.381987 -0.854420
vn -0.000000 -0.952088 0.305823
vn 0.000000 -0.811543 0.584292
vn -0.325360 -0.887852 0.325360
vn 0.000000 -0.587914 0.808923
vn -0.347937 -0.695754 0.628383
vn -0.628383 -0.695754 0.347937
vn 0.000000 -0.302440 0.953169
vn -0.352210 -0.381987 0.854420
vn -0.645432 -0.408454 0.645432
vn -0.854420 -0.381987 0.352210
vn 0.325360 -0.887852 0.325360
vn 0.628383 -0.695754 0.347937
vn 0.347937 -0.695754 0.628383
vn 0.854420 -0.381987 0.352210
vn 0.645432 -0.408454 0.645432
vn 0.352210 -0.381987 0.854420
# 102 vertex normals

vt 0.625000 1.000000 99.905128
vt 0.500000 0.900000 99.905136
vt 0.750000 0.900000 99.905136
vt 0.500000 0.800000 99.905128
vt 0.625000 0.848936 99.905136
vt 0.750000 0.800000 99.905128
vt 0.500000 0.700000 99.905128
vt 0.579325 0.747670 99.905128
vt 0.670675 0.747670 99.905128
vt 0.750000 0.700000 99.905128
vt 0.500000 0.600000 99.905136
vt 0.560997 0.627339 99.905128
vt 0.625000 0.637106 99.905121
vt 0.689003 0.627339 99.905128
vt 0.750000 0.600000 99.905136
vt 0.500000 0.500000 99.905128
vt 0.550000 0.500000 99.905136
vt 0.600000 0.500000 99.905128
vt 0.650000 0.500000 99.905128
vt 0.700000 0.500000 99.905136
vt 0.750000 0.500000 99.905128
vt 0.875000 1.000000 99.905128
vt 1.000000 0.900000 99.905136
vt 0.875000 0.848936 99.905136
vt 1.000000 0.800000 99.905128
vt 0.829325 0.747670 99.905128
vt 0.920675 0.747670 99.905128
vt 1.000000 0.700000 99.905128
vt 0.810997 0.627339 99.905128
vt 0.875000 0.637106 99.905121
vt 0.939003 0.627339 99.905128
vt 1.000000 0.600000 99.905136
vt 0.800000 0.500000 99.905136
vt 0.850000 0.500000 99.905128
vt 0.900000 0.500000 99.905128
vt 0.950000 0.500000 99.905136
vt 1.000000 0.500000 99.905128
vt 0.125000 1.000000 99.905128
vt 0.000000 0.900000 99.905136
vt 0.250000 0.900000 99.905136
vt 0.000000 0.800000 99.905128
vt 0.125000 0.848936 99.905136
vt 0.250000 0.800000 99.905128
vt 0.000000 0.700000 99.905128
vt 0.079325 0.747670 99.905128
vt 0.170675 0.747670 99.905128
vt 0.250000 0.700000 99.905128
vt 0.000000 0.600000 99.905136
vt 0.060997 0.627339 99.905128
vt 0.125000 0.637106 99.905121
vt 0.189003 0.627339 99.905128
vt 0.250000 0.600000 99.905136
vt 0.000000 0.500000 99.905128
vt 0.050000 0.500000 99.905136
vt 0.100000 0.500000 99.905128
vt 0.150000 0.500000 99.905128
vt 0.200000 0.500000 99.905136
vt 0.250000 0.500000 99.905128
vt 0.375000 1.000000 99.905128
vt 0.375000 0.848936 99.905136
vt 0.329325 0.747670 99.905128
vt 0.420675 0.747670 99.905128
vt 0.310997 0.627339 99.905128
vt 0.375000 0.637106 99.905121
vt 0.439003 0.627339 99.905128
vt 0.300000 0.500000 99.905136
vt 0.350000 0.500000 99.905128
vt 0.400000 0.500000 99.905128
vt 0.450000 0.500000 99.905136
vt 0.625000 0.000000 99.905128
vt 0.750000 0.100000 99.905136
vt 0.500000 0.100000 99.905136
vt 0.750000 0.200000 99.905128
vt 0.625000 0.151064 99.905136
vt 0.500000 0.200000 99.905128
vt 0.750000 0.300000 99.905128
vt 0.670675 0.252330 99.905128
vt 0.579325 0.252330 99.905128
vt 0.500000 0.300000 99.905128
vt 0.750000 0.400000 99.905136
vt 0.689003 0.372661 99.905128
vt 0.625000 0.362894 99.905121
vt 0.560997 0.372661 99.905128
vt 0.500000 0.400000 99.905136
vt 0.875000 0.000000 99.905128
vt 1.000000 0.100000 99.905136
vt 1.000000 0.200000 99.905128
vt 0.875000 0.151064 99.905136
vt 1.000000 0.300000 99.905128
vt 0.920675 0.252330 99.905128
vt 0.829325 0.252330 99.905128
vt 1.000000 0.400000 99.905136
vt 0.939003 0.372661 99.905128
vt 0.875000 0.362894 99.905121
vt 0.810997 0.372661 99.905128
vt 0.125000 0.000000 99.905128
vt 0.250000 0.100000 99.905136
vt 0.000000 0.100000 99.905136
vt 0.250000 0.200000 99.905128
vt 0.125000 0.151064 99.905136
vt 0.000000 0.200000 99.905128
vt 0.250000 0.300000 99.905128
vt 0.170675 0.252330 99.905128
vt 0.079325 0.252330 99.905128
vt 0.000000 0.300000 99.905128
vt 0.250000 0.400000 99.905136
vt 0.189003 0.372661 99.905128
vt 0.125000 0.362894 99.905121
vt 0.060997 0.372661 99.905128
vt 0.000000 0.400000 99.905136
vt 0.375000 0.000000 99.905128
vt 0.375000 0.151064 99.905136
vt 0.420675 0.252330 99.905128
vt 0.329325 0.252330 99.905128
vt 0.439003 0.372661 99.905128
vt 0.375000 0.362894 99.905121
vt 0.310997 0.372661 99.905128
# 117 texture coords

g GeoSphere001
usemtl _Geospherewire_177088027
s 1
f -102/-117/-102 -96/-116/-101 -92/-115/-100 
f -96/-116/-101 -95/-114/-99 -48/-113/-98 
f -96/-116/-101 -48/-113/-98 -92/-115/-100 
f -92/-115/-100 -48/-113/-98 -91/-112/-97 
f -95/-114/-99 -94/-111/-96 -47/-110/-95 
f -95/-114/-99 -47/-110/-95 -48/-113/-98 
f -48/-113/-98 -47/-110/-95 -46/-109/-94 
f -48/-113/-98 -46/-109/-94 -91/-112/-97 
f -91/-112/-97 -46/-109/-94 -90/-108/-93 
f -94/-111/-96 -93/-107/-92 -45/-106/-91 
f -94/-111/-96 -45/-106/-91 -47/-110/-95 
f -47/-110/-95 -45/-106/-91 -44/-105/-90 
f -47/-110/-95 -44/-105/-90 -46/-109/-94 
f -46/-109/-94 -44/-105/-90 -43/-104/-89 
f -46/-109/-94 -43/-104/-89 -90/-108/-93 
f -90/-108/-93 -43/-104/-89 -89/-103/-88 
f -93/-107/-92 -101/-102/-87 -64/-101/-86 
f -93/-107/-92 -64/-101/-86 -45/-106/-91 
f -45/-106/-91 -64/-101/-86 -63/-100/-85 
f -45/-106/-91 -63/-100/-85 -44/-105/-90 
f -44/-105/-90 -63/-100/-85 -62/-99/-84 
f -44/-105/-90 -62/-99/-84 -43/-104/-89 
f -43/-104/-89 -62/-99/-84 -61/-98/-83 
f -43/-104/-89 -61/-98/-83 -89/-103/-88 
f -89/-103/-88 -61/-98/-83 -100/-97/-82 
f -102/-96/-102 -92/-115/-100 -88/-95/-81 
f -92/-115/-100 -91/-112/-97 -42/-94/-80 
f -92/-115/-100 -42/-94/-80 -88/-95/-81 
f -88/-95/-81 -42/-94/-80 -87/-93/-79 
f -91/-112/-97 -90/-108/-93 -41/-92/-78 
f -91/-112/-97 -41/-92/-78 -42/-94/-80 
f -42/-94/-80 -41/-92/-78 -40/-91/-77 
f -42/-94/-80 -40/-91/-77 -87/-93/-79 
f -87/-93/-79 -40/-91/-77 -86/-90/-76 
f -90/-108/-93 -89/-103/-88 -39/-89/-75 
f -90/-108/-93 -39/-89/-75 -41/-92/-78 
f -41/-92/-78 -39/-89/-75 -38/-88/-74 
f -41/-92/-78 -38/-88/-74 -40/-91/-77 
f -40/-91/-77 -38/-88/-74 -37/-87/-73 
f -40/-91/-77 -37/-87/-73 -86/-90/-76 
f -86/-90/-76 -37/-87/-73 -85/-86/-72 
f -89/-103/-88 -100/-97/-82 -60/-85/-71 
f -89/-103/-88 -60/-85/-71 -39/-89/-75 
f -39/-89/-75 -60/-85/-71 -59/-84/-70 
f -39/-89/-75 -59/-84/-70 -38/-88/-74 
f -38/-88/-74 -59/-84/-70 -58/-83/-69 
f -38/-88/-74 -58/-83/-69 -37/-87/-73 
f -37/-87/-73 -58/-83/-69 -57/-82/-68 
f -37/-87/-73 -57/-82/-68 -85/-86/-72 
f -85/-86/-72 -57/-82/-68 -99/-81/-67 
f -102/-80/-102 -88/-79/-81 -84/-78/-66 
f -88/-79/-81 -87/-77/-79 -36/-76/-65 
f -88/-79/-81 -36/-76/-65 -84/-78/-66 
f -84/-78/-66 -36/-76/-65 -83/-75/-64 
f -87/-77/-79 -86/-74/-76 -35/-73/-63 
f -87/-77/-79 -35/-73/-63 -36/-76/-65 
f -36/-76/-65 -35/-73/-63 -34/-72/-62 
f -36/-76/-65 -34/-72/-62 -83/-75/-64 
f -83/-75/-64 -34/-72/-62 -82/-71/-61 
f -86/-74/-76 -85/-70/-72 -33/-69/-60 
f -86/-74/-76 -33/-69/-60 -35/-73/-63 
f -35/-73/-63 -33/-69/-60 -32/-68/-59 
f -35/-73/-63 -32/-68/-59 -34/-72/-62 
f -34/-72/-62 -32/-68/-59 -31/-67/-58 
f -34/-72/-62 -31/-67/-58 -82/-71/-61 
f -82/-71/-61 -31/-67/-58 -81/-66/-57 
f -85/-70/-72 -99/-65/-67 -56/-64/-56 
f -85/-70/-72 -56/-64/-56 -33/-69/-60 
f -33/-69/-60 -56/-64/-56 -55/-63/-55 
f -33/-69/-60 -55/-63/-55 -32/-68/-59 
f -32/-68/-59 -55/-63/-55 -54/-62/-54 
f -32/-68/-59 -54/-62/-54 -31/-67/-58 
f -31/-67/-58 -54/-62/-54 -53/-61/-53 
f -31/-67/-58 -53/-61/-53 -81/-66/-57 
f -81/-66/-57 -53/-61/-53 -98/-60/-52 
f -102/-59/-102 -84/-78/-66 -96/-116/-101 
f -84/-78/-66 -83/-75/-64 -30/-58/-51 
f -84/-78/-66 -30/-58/-51 -96/-116/-101 
f -96/-116/-101 -30/-58/-51 -95/-114/-99 
f -83/-75/-64 -82/-71/-61 -29/-57/-50 
f -83/-75/-64 -29/-57/-50 -30/-58/-51 
f -30/-58/-51 -29/-57/-50 -28/-56/-49 
f -30/-58/-51 -28/-56/-49 -95/-114/-99 
f -95/-114/-99 -28/-56/-49 -94/-111/-96 
f -82/-71/-61 -81/-66/-57 -27/-55/-48 
f -82/-71/-61 -27/-55/-48 -29/-57/-50 
f -29/-57/-50 -27/-55/-48 -26/-54/-47 
f -29/-57/-50 -26/-54/-47 -28/-56/-49 
f -28/-56/-49 -26/-54/-47 -25/-53/-46 
f -28/-56/-49 -25/-53/-46 -94/-111/-96 
f -94/-111/-96 -25/-53/-46 -93/-107/-92 
f -81/-66/-57 -98/-60/-52 -52/-52/-45 
f -81/-66/-57 -52/-52/-45 -27/-55/-48 
f -27/-55/-48 -52/-52/-45 -51/-51/-44 
f -27/-55/-48 -51/-51/-44 -26/-54/-47 
f -26/-54/-47 -51/-51/-44 -50/-50/-43 
f -26/-54/-47 -50/-50/-43 -25/-53/-46 
f -25/-53/-46 -50/-50/-43 -49/-49/-42 
f -25/-53/-46 -49/-49/-42 -93/-107/-92 
f -93/-107/-92 -49/-49/-42 -101/-102/-87 
f -97/-48/-41 -76/-47/-40 -80/-46/-39 
f -76/-47/-40 -75/-45/-38 -24/-44/-37 
f -76/-47/-40 -24/-44/-37 -80/-46/-39 
f -80/-46/-39 -24/-44/-37 -79/-43/-36 
f -75/-45/-38 -74/-42/-35 -23/-41/-34 
f -75/-45/-38 -23/-41/-34 -24/-44/-37 
f -24/-44/-37 -23/-41/-34 -22/-40/-33 
f -24/-44/-37 -22/-40/-33 -79/-43/-36 
f -79/-43/-36 -22/-40/-33 -78/-39/-32 
f -74/-42/-35 -73/-38/-31 -21/-37/-30 
f -74/-42/-35 -21/-37/-30 -23/-41/-34 
f -23/-41/-34 -21/-37/-30 -20/-36/-29 
f -23/-41/-34 -20/-36/-29 -22/-40/-33 
f -22/-40/-33 -20/-36/-29 -19/-35/-28 
f -22/-40/-33 -19/-35/-28 -78/-39/-32 
f -78/-39/-32 -19/-35/-28 -77/-34/-27 
f -73/-38/-31 -100/-97/-82 -61/-98/-83 
f -73/-38/-31 -61/-98/-83 -21/-37/-30 
f -21/-37/-30 -61/-98/-83 -62/-99/-84 
f -21/-37/-30 -62/-99/-84 -20/-36/-29 
f -20/-36/-29 -62/-99/-84 -63/-100/-85 
f -20/-36/-29 -63/-100/-85 -19/-35/-28 
f -19/-35/-28 -63/-100/-85 -64/-101/-86 
f -19/-35/-28 -64/-101/-86 -77/-34/-27 
f -77/-34/-27 -64/-101/-86 -101/-102/-87 
f -97/-33/-41 -72/-32/-26 -76/-47/-40 
f -72/-32/-26 -71/-31/-25 -18/-30/-24 
f -72/-32/-26 -18/-30/-24 -76/-47/-40 
f -76/-47/-40 -18/-30/-24 -75/-45/-38 
f -71/-31/-25 -70/-29/-23 -17/-28/-22 
f -71/-31/-25 -17/-28/-22 -18/-30/-24 
f -18/-30/-24 -17/-28/-22 -16/-27/-21 
f -18/-30/-24 -16/-27/-21 -75/-45/-38 
f -75/-45/-38 -16/-27/-21 -74/-42/-35 
f -70/-29/-23 -69/-26/-20 -15/-25/-19 
f -70/-29/-23 -15/-25/-19 -17/-28/-22 
f -17/-28/-22 -15/-25/-19 -14/-24/-18 
f -17/-28/-22 -14/-24/-18 -16/-27/-21 
f -16/-27/-21 -14/-24/-18 -13/-23/-17 
f -16/-27/-21 -13/-23/-17 -74/-42/-35 
f -74/-42/-35 -13/-23/-17 -73/-38/-31 
f -69/-26/-20 -99/-81/-67 -57/-82/-68 
f -69/-26/-20 -57/-82/-68 -15/-25/-19 
f -15/-25/-19 -57/-82/-68 -58/-83/-69 
f -15/-25/-19 -58/-83/-69 -14/-24/-18 
f -14/-24/-18 -58/-83/-69 -59/-84/-70 
f -14/-24/-18 -59/-84/-70 -13/-23/-17 
f -13/-23/-17 -59/-84/-70 -60/-85/-71 
f -13/-23/-17 -60/-85/-71 -73/-38/-31 
f -73/-38/-31 -60/-85/-71 -100/-97/-82 
f -97/-22/-41 -68/-21/-16 -72/-20/-26 
f -68/-21/-16 -67/-19/-15 -12/-18/-14 
f -68/-21/-16 -12/-18/-14 -72/-20/-26 
f -72/-20/-26 -12/-18/-14 -71/-17/-25 
f -67/-19/-15 -66/-16/-13 -11/-15/-12 
f -67/-19/-15 -11/-15/-12 -12/-18/-14 
f -12/-18/-14 -11/-15/-12 -10/-14/-11 
f -12/-18/-14 -10/-14/-11 -71/-17/-25 
f -71/-17/-25 -10/-14/-11 -70/-13/-23 
f -66/-16/-13 -65/-12/-10 -9/-11/-9 
f -66/-16/-13 -9/-11/-9 -11/-15/-12 
f -11/-15/-12 -9/-11/-9 -8/-10/-8 
f -11/-15/-12 -8/-10/-8 -10/-14/-11 
f -10/-14/-11 -8/-10/-8 -7/-9/-7 
f -10/-14/-11 -7/-9/-7 -70/-13/-23 
f -70/-13/-23 -7/-9/-7 -69/-8/-20 
f -65/-12/-10 -98/-60/-52 -53/-61/-53 
f -65/-12/-10 -53/-61/-53 -9/-11/-9 
f -9/-11/-9 -53/-61/-53 -54/-62/-54 
f -9/-11/-9 -54/-62/-54 -8/-10/-8 
f -8/-10/-8 -54/-62/-54 -55/-63/-55 
f -8/-10/-8 -55/-63/-55 -7/-9/-7 
f -7/-9/-7 -55/-63/-55 -56/-64/-56 
f -7/-9/-7 -56/-64/-56 -69/-8/-20 
f -69/-8/-20 -56/-64/-56 -99/-65/-67 
f -97/-7/-41 -80/-46/-39 -68/-21/-16 
f -80/-46/-39 -79/-43/-36 -6/-6/-6 
f -80/-46/-39 -6/-6/-6 -68/-21/-16 
f -68/-21/-16 -6/-6/-6 -67/-19/-15 
f -79/-43/-36 -78/-39/-32 -5/-5/-5 
f -79/-43/-36 -5/-5/-5 -6/-6/-6 
f -6/-6/-6 -5/-5/-5 -4/-4/-4 
f -6/-6/-6 -4/-4/-4 -67/-19/-15 
f -67/-19/-15 -4/-4/-4 -66/-16/-13 
f -78/-39/-32 -77/-34/-27 -3/-3/-3 
f -78/-39/-32 -3/-3/-3 -5/-5/-5 
f -5/-5/-5 -3/-3/-3 -2/-2/-2 
f -5/-5/-5 -2/-2/-2 -4/-4/-4 
f -4/-4/-4 -2/-2/-2 -1/-1/-1 
f -4/-4/-4 -1/-1/-1 -66/-16/-13 
f -66/-16/-13 -1/-1/-1 -65/-12/-10 
f -77/-34/-27 -101/-102/-87 -49/-49/-42 
f -77/-34/-27 -49/-49/-42 -3/-3/-3 
f -3/-3/-3 -49/-49/-42 -50/-50/-43 
f -3/-3/-3 -50/-50/-43 -2/-2/-2 
f -2/-2/-2 -50/-50/-43 -51/-51/-44 
f -2/-2/-2 -51/-51/-44 -1/-1/-1 
f -1/-1/-1 -51/-51/-44 -52/-52/-45 
f -1/-1/-1 -52/-52/-45 -65/-12/-10 
f -65/-12/-10 -52/-52/-45 -98/-60/-52 
# 0 polygons - 200 triangles

