# 3ds Max Wavefront OBJ Exporter v0.97b - (c)2007 guruware
# File Created: 27.05.2012 16:31:03

mtllib Hedra.mtl

#
# object Hedra001
#

v  0.000000 75.625771 0.000000
v  53.475494 0.000000 -53.475494
v  -53.475494 0.000000 -53.475494
v  -53.475494 0.000000 53.475494
v  53.475494 0.000000 53.475494
v  0.000000 -75.625771 0.000000
# 6 vertices

vn 0.816497 0.577350 -0.000000
vn 0.000000 -0.577350 -0.816497
vn -0.816497 0.577350 -0.000000
vn 0.000000 -0.577350 0.816497
vn 0.000000 0.577350 -0.816497
vn 0.000000 0.577350 0.816497
vn 0.816497 -0.577350 -0.000000
vn -0.816497 -0.577350 -0.000000
# 8 vertex normals

vt 0.000000 0.500000 0.000000
vt -0.500000 0.000000 0.500000
vt 0.500000 0.000000 0.500000
vt 0.000000 0.500000 0.500000
vt -0.500000 0.000000 0.000000
vt 0.000000 -0.500000 0.500000
vt 0.500000 0.000000 -0.500000
vt -0.500000 -0.000000 -0.500000
vt -0.000000 -0.500000 -0.500000
vt 0.000000 0.500000 -0.500000
vt 0.500000 0.000000 0.000000
vt 0.000000 -0.500000 0.000000
# 12 texture coords

g Hedra001
usemtl _HedraMaterial__25
s off
f -6/-12/-8 -2/-11/-8 -5/-10/-8 
f -5/-9/-7 -1/-8/-7 -4/-7/-7 
f -4/-6/-6 -3/-5/-6 -6/-12/-6 
f -3/-4/-5 -1/-8/-5 -2/-3/-5 
f -5/-9/-4 -4/-7/-4 -6/-2/-4 
f -3/-4/-3 -2/-3/-3 -6/-2/-3 
f -2/-11/-2 -1/-1/-2 -5/-10/-2 
f -3/-5/-1 -4/-6/-1 -1/-1/-1 
# 0 polygons - 8 triangles

