# 3ds Max Wavefront OBJ Exporter v0.97b - (c)2007 guruware
# File Created: 27.05.2012 16:32:30

mtllib L-Wall with window.mtl

#
# object L_Ext001
#

v  138.668640 79.316971 -118.863052
v  -138.668640 79.316971 -118.863052
v  -138.668640 79.316971 118.863052
v  138.668640 79.316971 -112.520706
v  -132.326294 79.316971 -112.520706
v  -132.326294 79.316971 118.863052
v  138.668640 79.316971 -118.863052
v  -138.668640 79.316971 -118.863052
v  -138.668640 79.316971 118.863052
v  -132.326294 79.316971 118.863052
v  -132.326294 79.316971 -112.520706
v  138.668640 79.316971 -112.520706
v  138.668640 -79.316971 -118.863052
v  -138.668640 -79.316971 -118.863052
v  -138.668640 -79.316971 118.863052
v  -132.326294 -79.316971 118.863052
v  -132.326294 -79.316971 -112.520706
v  138.668640 -79.316971 -112.520706
v  138.668640 -79.316971 -118.863052
v  -138.668640 -79.316971 -118.863052
v  -138.668640 -79.316971 118.863052
v  138.668640 -79.316971 -112.520706
v  -132.326294 -79.316971 -112.520706
v  -132.326294 -79.316971 118.863052
v  -33.362885 -37.707802 -118.863052
v  37.503265 -37.707802 -118.863052
v  37.503265 -37.707802 -112.520706
v  -33.362885 -37.707802 -112.520706
v  37.503265 41.032356 -118.863052
v  37.503265 41.032364 -112.520706
v  -33.362885 41.032356 -118.863052
v  -33.362885 41.032356 -112.520706
# 32 vertices

vn 0.000000 1.000000 -0.000000
vn -1.000000 0.000000 -0.000000
vn 0.000000 0.000000 1.000000
vn 1.000000 0.000000 -0.000000
vn 0.000000 -1.000000 -0.000000
vn 0.000000 0.000000 -1.000000
# 6 vertex normals

vt 0.977131 0.026679 0.000000
vt 0.000000 0.026679 0.000000
vt 0.000000 0.000000 0.000000
vt 1.000000 0.000000 0.000000
vt 1.000000 1.000000 0.000000
vt 0.977131 1.000000 0.000000
vt 0.500000 1.000000 0.000000
vt 0.269226 1.000000 0.000000
vt 0.269226 0.000000 0.000000
vt 0.500000 0.000000 0.000000
vt 0.506157 1.000000 0.000000
vt 0.506157 0.000000 0.000000
vt 0.730774 1.000000 0.000000
vt 0.730774 0.000000 0.000000
vt 0.993843 1.000000 0.000000
vt 0.993843 0.000000 0.000000
vt 0.977131 0.973321 0.000000
vt 0.000000 1.000000 0.000000
vt 0.000000 0.973321 0.000000
vt 0.977131 0.000000 0.000000
vt 0.895636 0.758661 0.000000
vt 0.826843 0.758661 0.000000
vt 0.167000 0.262297 0.000000
vt 0.167000 0.758661 0.000000
vt 0.895636 0.262297 0.000000
vt 0.826843 0.262297 0.000000
vt 0.098207 0.262297 0.000000
vt 0.098207 0.758661 0.000000
# 28 texture coords

g L_Ext001
usemtl _L_Wall_with_windowMaterial__25
s off
f -28/-28/-6 -29/-27/-6 -32/-26/-6 -31/-25/-6 
f -30/-24/-6 -27/-23/-6 -28/-28/-6 -31/-25/-6 
f -24/-22/-5 -25/-21/-5 -19/-20/-5 -18/-19/-5 
f -23/-18/-4 -24/-22/-4 -18/-19/-4 -17/-17/-4 
f -22/-16/-3 -23/-18/-3 -17/-17/-3 -16/-15/-3 
f -26/-24/-3 -21/-14/-3 -15/-13/-3 -20/-25/-3 
f -10/-12/-2 -13/-24/-2 -14/-11/-2 -11/-10/-2 
f -12/-25/-2 -13/-24/-2 -10/-12/-2 -9/-9/-2 
f -3/-8/-4 -21/-14/-4 -22/-16/-4 -1/-7/-4 
f -8/-6/-1 -19/-20/-1 -25/-21/-1 -2/-5/-1 
f -6/-4/-4 -15/-13/-4 -21/-14/-4 -3/-8/-4 
f -6/-4/-4 -5/-3/-4 -16/-15/-4 -15/-13/-4 
f -5/-3/-4 -1/-7/-4 -22/-16/-4 -16/-15/-4 
f -8/-6/-1 -7/-2/-1 -20/-26/-1 -19/-20/-1 
f -7/-2/-1 -4/-1/-1 -26/-11/-1 -20/-26/-1 
f -2/-5/-1 -25/-21/-1 -26/-11/-1 -4/-1/-1 
# 16 polygons

