# 3ds Max Wavefront OBJ Exporter v0.97b - (c)2007 guruware
# File Created: 27.05.2012 17:45:01

mtllib Open stair.mtl

#
# object StraightStair001
#

v  130.875031 -45.199745 45.089325
v  131.258423 -45.199745 -72.029388
v  130.875031 -43.199745 45.089325
v  131.258423 -43.199745 -72.029388
v  110.977036 -45.199745 45.024193
v  111.360413 -45.199745 -72.094528
v  110.977036 -43.199745 45.024193
v  111.360413 -43.199745 -72.094528
v  110.977036 -35.599800 45.024193
v  111.360413 -35.599800 -72.094528
v  110.977036 -33.599800 45.024193
v  111.360413 -33.599800 -72.094528
v  91.079025 -35.599800 44.959061
v  91.462418 -35.599800 -72.159660
v  91.079025 -33.599800 44.959061
v  91.462418 -33.599800 -72.159660
v  91.079025 -25.999859 44.959061
v  91.462418 -25.999859 -72.159660
v  91.079025 -23.999859 44.959061
v  91.462418 -23.999859 -72.159660
v  71.181015 -25.999859 44.893921
v  71.564407 -25.999859 -72.224800
v  71.181015 -23.999859 44.893921
v  71.564407 -23.999859 -72.224800
v  71.181015 -16.399914 44.893921
v  71.564407 -16.399914 -72.224800
v  71.181015 -14.399914 44.893921
v  71.564407 -14.399914 -72.224800
v  51.283005 -16.399914 44.828789
v  51.666397 -16.399914 -72.289932
v  51.283005 -14.399914 44.828789
v  51.666397 -14.399914 -72.289932
v  51.283020 -6.799973 44.828789
v  51.666397 -6.799973 -72.289932
v  51.283020 -4.799973 44.828789
v  51.666397 -4.799973 -72.289932
v  31.385025 -6.799973 44.763649
v  31.768402 -6.799973 -72.355064
v  31.385025 -4.799973 44.763649
v  31.768402 -4.799973 -72.355064
v  31.385010 2.799973 44.763649
v  31.768387 2.799973 -72.355064
v  31.385010 4.799973 44.763649
v  31.768387 4.799973 -72.355064
v  11.487000 2.799973 44.698517
v  11.870377 2.799973 -72.420204
v  11.487000 4.799973 44.698517
v  11.870377 4.799973 -72.420204
v  11.487015 12.399918 44.698517
v  11.870392 12.399918 -72.420204
v  11.487015 14.399918 44.698517
v  11.870392 14.399918 -72.420204
v  -8.410995 12.399918 44.633385
v  -8.027603 12.399918 -72.485336
v  -8.410995 14.399918 44.633385
v  -8.027603 14.399918 -72.485336
v  -8.411026 21.999863 44.633385
v  -8.027634 21.999863 -72.485336
v  -8.411026 23.999863 44.633385
v  -8.027634 23.999863 -72.485336
v  -28.309036 21.999863 44.568245
v  -27.925644 21.999863 -72.550476
v  -28.309036 23.999863 44.568245
v  -27.925644 23.999863 -72.550476
v  -28.309006 31.599800 44.568245
v  -27.925613 31.599800 -72.550476
v  -28.309006 33.599800 44.568245
v  -27.925613 33.599800 -72.550476
v  -48.207016 31.599800 44.503113
v  -47.823624 31.599800 -72.615608
v  -48.207016 33.599800 44.503113
v  -47.823624 33.599800 -72.615608
v  -48.206985 41.199745 44.503113
v  -47.823624 41.199745 -72.615608
v  -48.206985 43.199745 44.503113
v  -47.823624 43.199745 -72.615608
v  -68.104996 41.199745 44.437973
v  -67.721634 41.199745 -72.680740
v  -68.104996 43.199745 44.437973
v  -67.721634 43.199745 -72.680740
v  -68.105026 50.799690 44.437973
v  -67.721634 50.799690 -72.680740
v  -68.105026 52.799690 44.437973
v  -67.721634 52.799690 -72.680740
v  -88.003036 50.799690 44.372841
v  -87.619644 50.799690 -72.745880
v  -88.003036 52.799690 44.372841
v  -87.619644 52.799690 -72.745880
v  -87.816238 50.799690 -12.686529
v  -87.806442 50.799690 -15.686514
v  -67.918228 50.799690 -12.621393
v  -67.908432 50.799690 -15.621378
v  -67.918228 41.199745 -12.621393
v  -67.908401 41.199745 -15.621378
v  -48.020218 41.199745 -12.556257
v  -48.010391 41.199745 -15.556242
v  -48.020218 31.599800 -12.556257
v  -48.010422 31.599800 -15.556242
v  -28.122208 31.599800 -12.491121
v  -28.112411 31.599800 -15.491106
v  -28.122238 21.999863 -12.491121
v  -28.112442 21.999863 -15.491106
v  -8.224228 21.999863 -12.425985
v  -8.214432 21.999863 -15.425970
v  -8.224197 12.399918 -12.425985
v  -8.214401 12.399918 -15.425970
v  11.673798 12.399918 -12.360853
v  11.683609 12.399918 -15.360838
v  11.673782 2.799973 -12.360853
v  11.683594 2.799973 -15.360838
v  31.571793 2.799973 -12.295717
v  31.581604 2.799973 -15.295702
v  31.571793 -6.799973 -12.295717
v  31.581619 -6.799973 -15.295702
v  51.469803 -6.799973 -12.230581
v  51.479630 -6.799973 -15.230566
v  51.469803 -16.399914 -12.230581
v  51.479614 -16.399914 -15.230566
v  71.367798 -16.399914 -12.165445
v  71.377609 -16.399914 -15.165430
v  71.367813 -25.999859 -12.165445
v  71.377625 -25.999859 -15.165430
v  91.265808 -25.999859 -12.100309
v  91.275620 -25.999859 -15.100294
v  91.265808 -35.599800 -12.100309
v  91.275620 -35.599800 -15.100294
v  111.163803 -35.599800 -12.035177
v  111.173630 -35.599800 -15.035162
v  111.163803 -45.199745 -12.035177
v  111.173630 -45.199745 -15.035162
v  131.061813 -45.199745 -11.970041
v  131.071625 -45.199745 -14.970026
v  131.061813 -52.799690 -11.970041
v  131.071640 -52.799690 -14.970026
v  110.334610 -52.799690 -12.037889
v  110.344421 -52.799690 -15.037874
v  -87.816238 42.799690 -12.686529
v  -87.806412 42.799690 -15.686514
# 138 vertices

vn 0.999995 0.000000 0.003273
vn -0.999995 0.000000 -0.003273
vn 0.000000 1.000000 -0.000000
vn 0.000000 -1.000000 -0.000000
vn -0.003273 0.000000 0.999995
vn 0.003274 0.000000 -0.999995
vn -0.999995 0.000000 -0.003274
vn 0.003273 0.000000 -0.999995
vn 0.999995 0.000000 0.003274
vn -0.003274 0.000000 0.999995
vn -0.003273 0.000001 0.999995
vn 0.003273 -0.000001 -0.999995
vn 0.999995 0.000002 0.003270
vn 0.999995 -0.000002 0.003270
vn 0.999995 -0.000003 0.003265
vn 0.999995 0.000003 0.003265
vn 0.999995 0.000001 0.003273
vn 0.999995 -0.000001 0.003273
vn 0.999995 0.000000 0.003270
vn 0.999995 0.000000 0.003276
vn 0.999995 0.000001 0.003274
vn -0.434525 -0.900659 -0.001423
vn -0.999995 -0.000002 -0.003270
# 23 vertex normals

vt 0.993426 0.091318 0.999501
vt 0.000500 0.091318 0.997754
vt 0.000500 0.072397 0.997754
vt 0.993426 0.072397 0.999501
vt 0.998948 0.091318 0.907094
vt 0.006022 0.091318 0.908841
vt 0.006022 0.072397 0.908841
vt 0.998948 0.072397 0.907094
vt 0.908841 0.993978 0.091318
vt 0.907094 0.001052 0.091318
vt 0.997754 0.000500 0.091318
vt 0.999501 0.993426 0.091318
vt 0.092906 0.001052 0.072397
vt 0.091159 0.993978 0.072397
vt 0.000499 0.993426 0.072397
vt 0.002246 0.000500 0.072397
vt 0.907094 0.091318 0.001052
vt 0.907094 0.072397 0.001052
vt 0.997754 0.072397 0.000500
vt 0.997754 0.091318 0.000500
vt 0.091159 0.072397 0.993978
vt 0.091159 0.091318 0.993978
vt 0.000499 0.091318 0.993426
vt 0.000499 0.072397 0.993426
vt 0.993978 0.182136 0.908841
vt 0.001052 0.182136 0.907094
vt 0.001052 0.163216 0.907094
vt 0.993978 0.163216 0.908841
vt 0.998396 0.182136 0.816435
vt 0.005470 0.182136 0.818182
vt 0.005470 0.163216 0.818182
vt 0.998396 0.163216 0.816435
vt 0.818182 0.994530 0.182136
vt 0.816435 0.001604 0.182136
vt 0.907094 0.001052 0.182136
vt 0.908841 0.993978 0.182136
vt 0.183565 0.001604 0.163216
vt 0.181818 0.994530 0.163216
vt 0.091159 0.993978 0.163216
vt 0.092906 0.001052 0.163216
vt 0.816435 0.182136 0.001604
vt 0.816435 0.163216 0.001604
vt 0.907094 0.163216 0.001052
vt 0.907094 0.182136 0.001052
vt 0.181818 0.163216 0.994530
vt 0.181818 0.182136 0.994530
vt 0.091159 0.182136 0.993978
vt 0.091159 0.163216 0.993978
vt 0.994530 0.272954 0.818182
vt 0.001604 0.272954 0.816435
vt 0.001604 0.254034 0.816435
vt 0.994530 0.254034 0.818182
vt 0.997844 0.272954 0.725775
vt 0.004918 0.272954 0.727522
vt 0.004918 0.254034 0.727522
vt 0.997844 0.254034 0.725775
vt 0.727522 0.995082 0.272954
vt 0.725775 0.002156 0.272954
vt 0.816435 0.001604 0.272954
vt 0.818182 0.994530 0.272954
vt 0.274225 0.002156 0.254034
vt 0.272478 0.995082 0.254034
vt 0.181818 0.994530 0.254034
vt 0.183565 0.001604 0.254034
vt 0.725775 0.272954 0.002156
vt 0.725775 0.254034 0.002156
vt 0.816435 0.254034 0.001604
vt 0.816435 0.272954 0.001604
vt 0.272478 0.254034 0.995082
vt 0.272478 0.272954 0.995082
vt 0.181818 0.272954 0.994530
vt 0.181818 0.254034 0.994530
vt 0.995082 0.363773 0.727522
vt 0.002156 0.363773 0.725775
vt 0.002156 0.344852 0.725775
vt 0.995082 0.344852 0.727522
vt 0.997291 0.363773 0.635116
vt 0.004365 0.363773 0.636863
vt 0.004365 0.344852 0.636863
vt 0.997291 0.344852 0.635116
vt 0.636863 0.995635 0.363773
vt 0.635116 0.002709 0.363773
vt 0.725775 0.002156 0.363773
vt 0.727522 0.995082 0.363773
vt 0.364884 0.002709 0.344852
vt 0.363137 0.995635 0.344852
vt 0.272478 0.995082 0.344852
vt 0.274225 0.002156 0.344852
vt 0.635116 0.363773 0.002709
vt 0.635116 0.344852 0.002709
vt 0.725775 0.344852 0.002156
vt 0.725775 0.363773 0.002156
vt 0.363137 0.344852 0.995635
vt 0.363137 0.363773 0.995635
vt 0.272478 0.363773 0.995082
vt 0.272478 0.344852 0.995082
vt 0.995635 0.454591 0.636863
vt 0.002709 0.454591 0.635116
vt 0.002709 0.435670 0.635116
vt 0.995635 0.435670 0.636863
vt 0.996739 0.454591 0.544456
vt 0.003813 0.454591 0.546203
vt 0.003813 0.435670 0.546203
vt 0.996739 0.435670 0.544456
vt 0.546203 0.996187 0.454591
vt 0.544456 0.003261 0.454591
vt 0.635116 0.002709 0.454591
vt 0.636863 0.995635 0.454591
vt 0.455544 0.003261 0.435670
vt 0.453797 0.996187 0.435670
vt 0.363137 0.995635 0.435670
vt 0.364884 0.002709 0.435670
vt 0.544456 0.454591 0.003261
vt 0.544456 0.435670 0.003261
vt 0.635116 0.435670 0.002709
vt 0.635116 0.454591 0.002709
vt 0.453797 0.435670 0.996187
vt 0.453797 0.454591 0.996187
vt 0.363137 0.454591 0.995635
vt 0.363137 0.435670 0.995635
vt 0.996187 0.545409 0.546203
vt 0.003261 0.545409 0.544456
vt 0.003261 0.526489 0.544456
vt 0.996187 0.526489 0.546203
vt 0.996187 0.545409 0.453797
vt 0.003261 0.545409 0.455544
vt 0.003261 0.526489 0.455544
vt 0.996187 0.526489 0.453797
vt 0.455544 0.996739 0.545409
vt 0.453797 0.003813 0.545409
vt 0.544456 0.003261 0.545409
vt 0.546203 0.996187 0.545409
vt 0.546203 0.003813 0.526489
vt 0.544456 0.996739 0.526489
vt 0.453797 0.996187 0.526489
vt 0.455544 0.003261 0.526489
vt 0.453797 0.545409 0.003813
vt 0.453797 0.526489 0.003813
vt 0.544456 0.526489 0.003261
vt 0.544456 0.545409 0.003261
vt 0.544456 0.526489 0.996739
vt 0.544456 0.545409 0.996739
vt 0.453797 0.545409 0.996187
vt 0.453797 0.526489 0.996187
vt 0.996739 0.636227 0.455544
vt 0.003813 0.636227 0.453797
vt 0.003813 0.617307 0.453797
vt 0.996739 0.617307 0.455544
vt 0.995635 0.636227 0.363137
vt 0.002709 0.636227 0.364884
vt 0.002709 0.617307 0.364884
vt 0.995635 0.617307 0.363137
vt 0.364884 0.997291 0.636227
vt 0.363137 0.004365 0.636227
vt 0.453797 0.003813 0.636227
vt 0.455544 0.996739 0.636227
vt 0.636863 0.004365 0.617307
vt 0.635116 0.997291 0.617307
vt 0.544456 0.996739 0.617307
vt 0.546203 0.003813 0.617307
vt 0.363137 0.636227 0.004365
vt 0.363137 0.617307 0.004365
vt 0.453797 0.617307 0.003813
vt 0.453797 0.636227 0.003813
vt 0.635116 0.617307 0.997291
vt 0.635116 0.636227 0.997291
vt 0.544456 0.636227 0.996739
vt 0.544456 0.617307 0.996739
vt 0.997291 0.727046 0.364884
vt 0.004365 0.727046 0.363137
vt 0.004365 0.708125 0.363137
vt 0.997291 0.708125 0.364884
vt 0.995082 0.727046 0.272478
vt 0.002156 0.727046 0.274225
vt 0.002156 0.708125 0.274225
vt 0.995082 0.708125 0.272478
vt 0.274225 0.997844 0.727046
vt 0.272478 0.004918 0.727046
vt 0.363137 0.004365 0.727046
vt 0.364884 0.997291 0.727046
vt 0.727522 0.004918 0.708125
vt 0.725775 0.997844 0.708125
vt 0.635116 0.997291 0.708125
vt 0.636863 0.004365 0.708125
vt 0.272478 0.727046 0.004918
vt 0.272478 0.708125 0.004918
vt 0.363137 0.708125 0.004365
vt 0.363137 0.727046 0.004365
vt 0.725775 0.708125 0.997844
vt 0.725775 0.727046 0.997844
vt 0.635116 0.727046 0.997291
vt 0.635116 0.708125 0.997291
vt 0.997844 0.817864 0.274225
vt 0.004918 0.817864 0.272478
vt 0.004918 0.798943 0.272478
vt 0.997844 0.798943 0.274225
vt 0.994530 0.817864 0.181818
vt 0.001604 0.817864 0.183565
vt 0.001604 0.798943 0.183565
vt 0.994530 0.798943 0.181818
vt 0.183565 0.998396 0.817864
vt 0.181818 0.005470 0.817864
vt 0.272478 0.004918 0.817864
vt 0.274225 0.997844 0.817864
vt 0.818182 0.005470 0.798943
vt 0.816435 0.998396 0.798943
vt 0.725775 0.997844 0.798943
vt 0.727522 0.004918 0.798943
vt 0.181818 0.817864 0.005470
vt 0.181818 0.798943 0.005470
vt 0.272478 0.798943 0.004918
vt 0.272478 0.817864 0.004918
vt 0.816435 0.798943 0.998396
vt 0.816435 0.817864 0.998396
vt 0.725775 0.817864 0.997844
vt 0.725775 0.798943 0.997844
vt 0.998396 0.908682 0.183565
vt 0.005470 0.908682 0.181819
vt 0.005470 0.889762 0.181819
vt 0.998396 0.889762 0.183565
vt 0.993978 0.908682 0.091159
vt 0.001052 0.908682 0.092906
vt 0.001052 0.889762 0.092906
vt 0.993978 0.889762 0.091159
vt 0.092906 0.998948 0.908682
vt 0.091159 0.006022 0.908682
vt 0.181819 0.005470 0.908682
vt 0.183565 0.998396 0.908682
vt 0.908841 0.006022 0.889762
vt 0.907094 0.998948 0.889762
vt 0.816435 0.998396 0.889762
vt 0.818181 0.005470 0.889762
vt 0.091159 0.908682 0.006022
vt 0.091159 0.889762 0.006022
vt 0.181819 0.889762 0.005470
vt 0.181819 0.908682 0.005470
vt 0.907094 0.889762 0.998948
vt 0.907094 0.908682 0.998948
vt 0.816435 0.908682 0.998396
vt 0.816435 0.889762 0.998396
vt 0.998948 0.999500 0.092906
vt 0.006022 0.999500 0.091159
vt 0.006022 0.980580 0.091159
vt 0.998948 0.980580 0.092906
vt 0.993426 0.999500 0.000499
vt 0.000500 0.999500 0.002246
vt 0.000500 0.980580 0.002246
vt 0.993426 0.980580 0.000499
vt 0.002246 0.999500 0.999500
vt 0.000499 0.006574 0.999500
vt 0.091159 0.006022 0.999500
vt 0.092906 0.998948 0.999500
vt 0.999501 0.006574 0.980580
vt 0.997754 0.999500 0.980580
vt 0.907094 0.998948 0.980580
vt 0.908841 0.006022 0.980580
vt 0.000499 0.999500 0.006574
vt 0.000499 0.980580 0.006574
vt 0.091159 0.980580 0.006022
vt 0.091159 0.999500 0.006022
vt 0.997754 0.980580 0.999500
vt 0.997754 0.999500 0.999500
vt 0.907094 0.999500 0.998948
vt 0.907094 0.980580 0.998948
vt 0.001351 0.980580 0.490321
vt 0.904167 0.000500 0.484821
vt 0.092010 0.889762 0.489768
vt 0.092010 0.980580 0.489768
vt 0.907945 0.889762 0.515202
vt 0.095788 0.000500 0.510255
vt 0.998605 0.980580 0.515754
vt 0.907945 0.980580 0.515202
vt 0.182670 0.798943 0.489216
vt 0.182670 0.889762 0.489216
vt 0.817286 0.798943 0.514650
vt 0.817286 0.889762 0.514650
vt 0.273329 0.708125 0.488664
vt 0.273329 0.798943 0.488664
vt 0.726626 0.708125 0.514097
vt 0.726626 0.798943 0.514097
vt 0.363989 0.617307 0.488111
vt 0.363988 0.708125 0.488111
vt 0.635967 0.617307 0.513545
vt 0.635967 0.708125 0.513545
vt 0.454648 0.526489 0.487559
vt 0.454648 0.617307 0.487559
vt 0.545307 0.526489 0.512993
vt 0.545307 0.617307 0.512993
vt 0.545307 0.435670 0.487007
vt 0.545307 0.526489 0.487007
vt 0.454648 0.435670 0.512441
vt 0.454648 0.526489 0.512441
vt 0.635967 0.344852 0.486455
vt 0.635967 0.435670 0.486455
vt 0.363988 0.344852 0.511888
vt 0.363988 0.435670 0.511888
vt 0.726626 0.254034 0.485902
vt 0.726626 0.344852 0.485902
vt 0.273329 0.254034 0.511336
vt 0.273329 0.344852 0.511336
vt 0.817286 0.163216 0.485350
vt 0.817286 0.254034 0.485350
vt 0.182670 0.163216 0.510784
vt 0.182670 0.254034 0.510784
vt 0.907945 0.072397 0.484798
vt 0.907945 0.163216 0.484798
vt 0.092010 0.163216 0.510232
vt 0.092010 0.072397 0.510232
vt 0.998605 0.000500 0.484246
vt 0.998605 0.072397 0.484246
vt 0.001351 0.000500 0.509679
vt 0.001351 0.072397 0.509679
vt 0.001351 0.904898 0.490321
vt 0.998605 0.904898 0.515754
vt 0.092055 0.515202 0.980580
vt 0.001395 0.515754 0.980580
vt 0.001351 0.490321 0.980580
vt 0.092010 0.489768 0.980580
vt 0.515202 0.889762 0.092055
vt 0.515202 0.980580 0.092055
vt 0.489768 0.980580 0.092010
vt 0.489768 0.889762 0.092010
vt 0.182714 0.514650 0.889762
vt 0.092055 0.515202 0.889762
vt 0.092010 0.489768 0.889762
vt 0.182670 0.489216 0.889762
vt 0.514650 0.798943 0.182714
vt 0.514650 0.889762 0.182714
vt 0.489216 0.889762 0.182670
vt 0.489216 0.798943 0.182670
vt 0.273374 0.514097 0.798943
vt 0.182714 0.514650 0.798943
vt 0.182670 0.489216 0.798943
vt 0.273329 0.488664 0.798943
vt 0.514097 0.708125 0.273374
vt 0.514097 0.798943 0.273374
vt 0.488664 0.798943 0.273329
vt 0.488664 0.708125 0.273329
vt 0.364033 0.513545 0.708125
vt 0.273374 0.514097 0.708125
vt 0.273329 0.488664 0.708125
vt 0.363988 0.488111 0.708125
vt 0.513545 0.617307 0.364033
vt 0.513545 0.708125 0.364033
vt 0.488111 0.708125 0.363988
vt 0.488111 0.617307 0.363989
vt 0.454693 0.512993 0.617307
vt 0.364033 0.513545 0.617307
vt 0.363989 0.488111 0.617307
vt 0.454648 0.487559 0.617307
vt 0.512993 0.526489 0.454693
vt 0.512993 0.617307 0.454693
vt 0.487559 0.617307 0.454648
vt 0.487559 0.526489 0.454648
vt 0.545352 0.512441 0.526489
vt 0.454693 0.512993 0.526489
vt 0.454648 0.487559 0.526489
vt 0.545307 0.487007 0.526489
vt 0.512441 0.435670 0.545352
vt 0.512441 0.526489 0.545352
vt 0.487007 0.526489 0.545307
vt 0.487007 0.435670 0.545307
vt 0.636012 0.511888 0.435670
vt 0.545352 0.512441 0.435670
vt 0.545307 0.487007 0.435670
vt 0.635967 0.486455 0.435670
vt 0.511888 0.344852 0.636012
vt 0.511888 0.435670 0.636012
vt 0.486455 0.435670 0.635967
vt 0.486455 0.344852 0.635967
vt 0.726671 0.511336 0.344852
vt 0.636012 0.511888 0.344852
vt 0.635967 0.486455 0.344852
vt 0.726626 0.485902 0.344852
vt 0.511336 0.254034 0.726671
vt 0.511336 0.344852 0.726671
vt 0.485902 0.344852 0.726626
vt 0.485902 0.254034 0.726626
vt 0.817330 0.510784 0.254034
vt 0.726671 0.511336 0.254034
vt 0.726626 0.485902 0.254034
vt 0.817286 0.485350 0.254034
vt 0.510784 0.163216 0.817330
vt 0.510784 0.254034 0.817330
vt 0.485350 0.254034 0.817286
vt 0.485350 0.163216 0.817286
vt 0.907990 0.510232 0.163216
vt 0.817330 0.510784 0.163216
vt 0.817286 0.485350 0.163216
vt 0.907945 0.484798 0.163216
vt 0.510232 0.072397 0.907990
vt 0.510232 0.163216 0.907990
vt 0.484798 0.163216 0.907945
vt 0.484798 0.072397 0.907945
vt 0.998649 0.509679 0.072397
vt 0.907990 0.510232 0.072397
vt 0.907945 0.484798 0.072397
vt 0.998605 0.484246 0.072397
vt 0.509679 0.000500 0.998649
vt 0.509679 0.072397 0.998649
vt 0.484246 0.072397 0.998605
vt 0.484246 0.000500 0.998605
vt 0.095788 0.510255 0.000500
vt 0.001351 0.509679 0.000500
vt 0.001395 0.484246 0.000500
vt 0.095833 0.484821 0.000500
vt 0.998605 0.515754 0.904898
vt 0.998649 0.490321 0.904898
vt 0.484246 0.980580 0.001395
vt 0.484246 0.904898 0.001395
vt 0.509679 0.904898 0.001351
vt 0.509679 0.980580 0.001351
# 412 texture coords

g StraightStair001
usemtl _Open_stair_Open_stairMaterial__25
s off
f -135/-412/-23 -136/-411/-23 -138/-410/-23 -137/-409/-23 
f -132/-408/-22 -131/-407/-22 -133/-406/-22 -134/-405/-22 
f -131/-404/-21 -132/-403/-21 -136/-402/-21 -135/-401/-21 
f -134/-400/-20 -133/-399/-20 -137/-398/-20 -138/-397/-20 
f -132/-396/-19 -134/-395/-19 -138/-394/-19 -136/-393/-19 
f -133/-392/-18 -131/-391/-18 -135/-390/-18 -137/-389/-18 
f -127/-388/-23 -128/-387/-23 -130/-386/-23 -129/-385/-23 
f -124/-384/-17 -123/-383/-17 -125/-382/-17 -126/-381/-17 
f -123/-380/-21 -124/-379/-21 -128/-378/-21 -127/-377/-21 
f -126/-376/-20 -125/-375/-20 -129/-374/-20 -130/-373/-20 
f -124/-372/-19 -126/-371/-19 -130/-370/-19 -128/-369/-19 
f -125/-368/-16 -123/-367/-16 -127/-366/-16 -129/-365/-16 
f -119/-364/-15 -120/-363/-15 -122/-362/-15 -121/-361/-15 
f -116/-360/-17 -115/-359/-17 -117/-358/-17 -118/-357/-17 
f -115/-356/-21 -116/-355/-21 -120/-354/-21 -119/-353/-21 
f -118/-352/-20 -117/-351/-20 -121/-350/-20 -122/-349/-20 
f -116/-348/-19 -118/-347/-19 -122/-346/-19 -120/-345/-19 
f -117/-344/-18 -115/-343/-18 -119/-342/-18 -121/-341/-18 
f -111/-340/-15 -112/-339/-15 -114/-338/-15 -113/-337/-15 
f -108/-336/-17 -107/-335/-17 -109/-334/-17 -110/-333/-17 
f -107/-332/-21 -108/-331/-21 -112/-330/-21 -111/-329/-21 
f -110/-328/-20 -109/-327/-20 -113/-326/-20 -114/-325/-20 
f -108/-324/-19 -110/-323/-19 -114/-322/-19 -112/-321/-19 
f -109/-320/-16 -107/-319/-16 -111/-318/-16 -113/-317/-16 
f -103/-316/-23 -104/-315/-23 -106/-314/-23 -105/-313/-23 
f -100/-312/-22 -99/-311/-22 -101/-310/-22 -102/-309/-22 
f -99/-308/-21 -100/-307/-21 -104/-306/-21 -103/-305/-21 
f -102/-304/-20 -101/-303/-20 -105/-302/-20 -106/-301/-20 
f -100/-300/-19 -102/-299/-19 -106/-298/-19 -104/-297/-19 
f -101/-296/-16 -99/-295/-16 -103/-294/-16 -105/-293/-16 
f -95/-292/-23 -96/-291/-23 -98/-290/-23 -97/-289/-23 
f -92/-288/-22 -91/-287/-22 -93/-286/-22 -94/-285/-22 
f -91/-284/-21 -92/-283/-21 -96/-282/-21 -95/-281/-21 
f -94/-280/-20 -93/-279/-20 -97/-278/-20 -98/-277/-20 
f -92/-276/-19 -94/-275/-19 -98/-274/-19 -96/-273/-19 
f -93/-272/-18 -91/-271/-18 -95/-270/-18 -97/-269/-18 
f -87/-268/-23 -88/-267/-23 -90/-266/-23 -89/-265/-23 
f -84/-264/-17 -83/-263/-17 -85/-262/-17 -86/-261/-17 
f -83/-260/-21 -84/-259/-21 -88/-258/-21 -87/-257/-21 
f -86/-256/-20 -85/-255/-20 -89/-254/-20 -90/-253/-20 
f -84/-252/-19 -86/-251/-19 -90/-250/-19 -88/-249/-19 
f -85/-248/-16 -83/-247/-16 -87/-246/-16 -89/-245/-16 
f -79/-244/-15 -80/-243/-15 -82/-242/-15 -81/-241/-15 
f -76/-240/-17 -75/-239/-17 -77/-238/-17 -78/-237/-17 
f -75/-236/-21 -76/-235/-21 -80/-234/-21 -79/-233/-21 
f -78/-232/-20 -77/-231/-20 -81/-230/-20 -82/-229/-20 
f -76/-228/-19 -78/-227/-19 -82/-226/-19 -80/-225/-19 
f -77/-224/-18 -75/-223/-18 -79/-222/-18 -81/-221/-18 
f -71/-220/-15 -72/-219/-15 -74/-218/-15 -73/-217/-15 
f -68/-216/-17 -67/-215/-17 -69/-214/-17 -70/-213/-17 
f -67/-212/-21 -68/-211/-21 -72/-210/-21 -71/-209/-21 
f -70/-208/-20 -69/-207/-20 -73/-206/-20 -74/-205/-20 
f -68/-204/-19 -70/-203/-19 -74/-202/-19 -72/-201/-19 
f -69/-200/-16 -67/-199/-16 -71/-198/-16 -73/-197/-16 
f -63/-196/-23 -64/-195/-23 -66/-194/-23 -65/-193/-23 
f -60/-192/-22 -59/-191/-22 -61/-190/-22 -62/-189/-22 
f -59/-188/-21 -60/-187/-21 -64/-186/-21 -63/-185/-21 
f -62/-184/-20 -61/-183/-20 -65/-182/-20 -66/-181/-20 
f -60/-180/-19 -62/-179/-19 -66/-178/-19 -64/-177/-19 
f -61/-176/-16 -59/-175/-16 -63/-174/-16 -65/-173/-16 
f -55/-172/-15 -56/-171/-15 -58/-170/-15 -57/-169/-15 
f -52/-168/-17 -51/-167/-17 -53/-166/-17 -54/-165/-17 
f -51/-164/-21 -52/-163/-21 -56/-162/-21 -55/-161/-21 
f -54/-160/-20 -53/-159/-20 -57/-158/-20 -58/-157/-20 
f -52/-156/-19 -54/-155/-19 -58/-154/-19 -56/-153/-19 
f -53/-152/-18 -51/-151/-18 -55/-150/-18 -57/-149/-18 
f -50/-148/-14 -4/-147/-14 -46/-146/-14 -48/-145/-14 
f -45/-144/-18 -3/-143/-18 -49/-142/-18 -47/-141/-18 
f -46/-146/-14 -4/-147/-14 -42/-140/-14 -44/-139/-14 
f -41/-138/-18 -3/-143/-18 -45/-144/-18 -43/-137/-18 
f -42/-140/-14 -4/-147/-14 -38/-136/-14 -40/-135/-14 
f -37/-134/-18 -3/-143/-18 -41/-138/-18 -39/-133/-18 
f -38/-136/-14 -4/-147/-14 -34/-132/-14 -36/-131/-14 
f -33/-130/-18 -3/-143/-18 -37/-134/-18 -35/-129/-18 
f -34/-132/-13 -4/-147/-13 -30/-128/-13 -32/-127/-13 
f -29/-126/-12 -3/-143/-12 -33/-130/-12 -31/-125/-12 
f -30/-128/-14 -4/-147/-14 -26/-124/-14 -28/-123/-14 
f -25/-122/-18 -3/-143/-18 -29/-126/-18 -27/-121/-18 
f -26/-124/-14 -4/-147/-14 -22/-120/-14 -24/-119/-14 
f -21/-118/-18 -3/-143/-18 -25/-122/-18 -23/-117/-18 
f -22/-120/-14 -4/-147/-14 -18/-116/-14 -20/-115/-14 
f -17/-114/-18 -3/-143/-18 -21/-118/-18 -19/-113/-18 
f -18/-116/-14 -4/-147/-14 -14/-112/-14 -16/-111/-14 
f -13/-110/-18 -3/-143/-18 -17/-114/-18 -15/-109/-18 
f -4/-147/-19 -10/-108/-19 -12/-107/-19 -14/-112/-19 
f -3/-143/-16 -13/-110/-16 -11/-106/-16 -9/-105/-16 
f -10/-108/-19 -4/-147/-19 -6/-104/-19 -8/-103/-19 
f -5/-102/-16 -3/-143/-16 -9/-105/-16 -7/-101/-16 
f -4/-147/-19 -50/-148/-19 -2/-100/-19 
f -3/-143/-16 -1/-99/-16 -49/-142/-16 
f -47/-98/-21 -49/-97/-21 -50/-96/-21 -48/-95/-21 
f -45/-94/-11 -47/-93/-11 -48/-92/-11 -46/-91/-11 
f -43/-90/-21 -45/-89/-21 -46/-88/-21 -44/-87/-21 
f -41/-86/-10 -43/-85/-10 -44/-84/-10 -42/-83/-10 
f -39/-82/-21 -41/-81/-21 -42/-80/-21 -40/-79/-21 
f -37/-78/-9 -39/-77/-9 -40/-76/-9 -38/-75/-9 
f -35/-74/-21 -37/-73/-21 -38/-72/-21 -36/-71/-21 
f -33/-70/-8 -35/-69/-8 -36/-68/-8 -34/-67/-8 
f -31/-66/-21 -33/-65/-21 -34/-64/-21 -32/-63/-21 
f -29/-62/-10 -31/-61/-10 -32/-60/-10 -30/-59/-10 
f -27/-58/-21 -29/-57/-21 -30/-56/-21 -28/-55/-21 
f -25/-54/-7 -27/-53/-7 -28/-52/-7 -26/-51/-7 
f -23/-50/-21 -25/-49/-21 -26/-48/-21 -24/-47/-21 
f -21/-46/-6 -23/-45/-6 -24/-44/-6 -22/-43/-6 
f -19/-42/-21 -21/-41/-21 -22/-40/-21 -20/-39/-21 
f -17/-38/-11 -19/-37/-11 -20/-36/-11 -18/-35/-11 
f -15/-34/-21 -17/-33/-21 -18/-32/-21 -16/-31/-21 
f -13/-30/-5 -15/-29/-5 -16/-28/-5 -14/-27/-5 
f -11/-26/-21 -13/-25/-21 -14/-24/-21 -12/-23/-21 
f -9/-22/-4 -11/-21/-4 -12/-20/-4 -10/-19/-4 
f -7/-18/-21 -9/-17/-21 -10/-16/-21 -8/-15/-21 
f -5/-14/-3 -7/-13/-3 -8/-12/-3 -6/-11/-3 
f -3/-10/-20 -5/-9/-20 -6/-8/-20 -4/-7/-20 
f -1/-6/-2 -3/-10/-2 -4/-7/-2 -2/-5/-2 
f -49/-4/-1 -1/-3/-1 -2/-2/-1 -50/-1/-1 
# 113 polygons - 2 triangles

