# 3ds Max Wavefront OBJ Exporter v0.97b - (c)2007 guruware
# File Created: 27.05.2012 16:36:46

mtllib Pyramid.mtl

#
# object Pyramid001
#

v  7.585410 39.371517 9.851828
v  -15.491512 0.005000 34.059975
v  30.662334 0.005000 34.059975
v  30.662334 0.005000 -14.356316
v  -15.491512 0.005000 -14.356316
v  7.585410 0.005000 9.851828
# 6 vertices

vn 0.000000 0.523824 0.851826
vn 0.862698 0.505719 -0.000000
vn 0.000000 0.523824 -0.851826
vn -0.862698 0.505719 -0.000000
vn 0.000000 -1.000000 -0.000000
# 5 vertex normals

vt 0.500000 1.000000 0.000000
vt 0.000000 0.000000 0.000000
vt 1.000000 0.000000 0.000000
vt 0.023364 0.000000 0.000000
vt 1.023365 0.000000 0.000000
vt 0.000000 1.000000 0.000000
vt 0.500000 0.500000 0.000000
vt 1.000000 1.000000 0.000000
# 8 texture coords

g Pyramid001
usemtl _Pyramidwire_213154229
s off
f -6/-8/-5 -5/-7/-5 -4/-6/-5 
f -6/-8/-4 -4/-5/-4 -3/-4/-4 
f -6/-8/-3 -3/-7/-3 -2/-6/-3 
f -6/-8/-2 -2/-5/-2 -5/-4/-2 
f -5/-3/-1 -1/-2/-1 -4/-1/-1 
f -4/-1/-1 -1/-2/-1 -3/-6/-1 
f -3/-6/-1 -1/-2/-1 -2/-7/-1 
f -2/-7/-1 -1/-2/-1 -5/-3/-1 
# 0 polygons - 8 triangles

