# 3ds Max Wavefront OBJ Exporter v0.97b - (c)2007 guruware
# File Created: 27.05.2012 17:51:33

mtllib Quad.mtl

#
# object Plane001
#

v  -19.685040 0.000000 19.685040
v  19.685040 0.000000 19.685040
v  -19.685040 0.000000 -19.685040
v  19.685040 0.000000 -19.685040
# 4 vertices

vn 0.000000 1.000000 -0.000000
# 1 vertex normals

vt 0.000000 1.000000 0.000000
vt 0.000000 0.000000 0.000000
vt 1.000000 0.000000 0.000000
vt 1.000000 1.000000 0.000000
# 4 texture coords

g Plane001
usemtl wire_225198087
s 1
f -2/-4/-1 -4/-3/-1 -3/-2/-1 -1/-1/-1 
# 1 polygons

