# 3ds Max Wavefront OBJ Exporter v0.97b - (c)2007 guruware
# File Created: 27.05.2012 17:55:57

mtllib Star2.mtl

#
# object Star002
#

v  7.454277 -0.750000 -0.000000
v  16.050323 -0.750000 -9.266663
v  3.727142 -0.750000 -6.455597
v  0.000000 -0.750000 -18.533325
v  -3.727142 -0.750000 -6.455597
v  -16.050323 -0.750000 -9.266663
v  -7.454277 -0.750000 -0.000000
v  -16.050323 -0.750000 9.266663
v  -3.727142 -0.750000 6.455597
v  0.000000 -0.750000 18.533325
v  3.727142 -0.750000 6.455597
v  16.050323 -0.750000 9.266663
v  7.454277 0.750000 -0.000000
v  16.050323 0.750000 -9.266663
v  3.727142 0.750000 -6.455597
v  0.000000 0.750000 -18.533325
v  -3.727142 0.750000 -6.455597
v  -16.050323 0.750000 -9.266663
v  -7.454277 0.750000 -0.000000
v  -16.050323 0.750000 9.266663
v  -3.727142 0.750000 6.455597
v  0.000000 0.750000 18.533325
v  3.727142 0.750000 6.455597
v  16.050323 0.750000 9.266663
# 24 vertices

vn 0.733137 0.000000 0.680081
vn -0.222399 0.000000 -0.974956
vn 0.955536 0.000000 -0.294875
vn -0.955536 0.000000 -0.294875
vn 0.222399 0.000000 -0.974956
vn -0.733137 0.000000 0.680081
vn -0.733137 0.000000 -0.680081
vn 0.222399 0.000000 0.974956
vn -0.955536 0.000000 0.294875
vn 0.955536 0.000000 0.294875
vn -0.222399 0.000000 0.974956
vn 0.733137 0.000000 -0.680081
vn 0.000000 -1.000000 -0.000000
vn 0.000000 1.000000 -0.000000
# 14 vertex normals

vt 0.749750 0.999500 0.999501
vt 0.500000 0.999500 0.731984
vt 0.500000 0.000500 0.731984
vt 0.749750 0.000500 0.999501
vt 0.384008 0.999500 0.673988
vt 0.000499 0.999500 0.749750
vt 0.000499 0.000500 0.749750
vt 0.384008 0.000500 0.673988
vt 0.999500 0.999500 0.500000
vt 0.673988 0.999500 0.615992
vt 0.673988 0.000500 0.615992
vt 0.999500 0.000500 0.500000
vt 0.326012 0.999500 0.384008
vt 0.000500 0.999500 0.500000
vt 0.000500 0.000500 0.500000
vt 0.326012 0.000500 0.384008
vt 0.999500 0.999500 0.749750
vt 0.615992 0.999500 0.673988
vt 0.615992 0.000500 0.673988
vt 0.999500 0.000500 0.749750
vt 0.500000 0.999500 0.268016
vt 0.250250 0.999500 0.000500
vt 0.250250 0.000500 0.000500
vt 0.500000 0.000500 0.268016
vt 0.749750 0.999500 0.000500
vt 0.749750 0.000500 0.000500
vt 0.384008 0.999500 0.326012
vt 0.000500 0.999500 0.250250
vt 0.000500 0.000500 0.250250
vt 0.384008 0.000500 0.326012
vt 0.673988 0.999500 0.384008
vt 0.673988 0.000500 0.384008
vt 0.326012 0.999500 0.615992
vt 0.326012 0.000500 0.615992
vt 0.999500 0.999500 0.250250
vt 0.615992 0.999500 0.326012
vt 0.615992 0.000500 0.326012
vt 0.999500 0.000500 0.250250
vt 0.250250 0.999500 0.999500
vt 0.250250 0.000500 0.999500
vt 0.384008 0.326012 0.000500
vt 0.384008 0.673988 0.000500
vt 0.268016 0.500000 0.000500
vt 0.000500 0.250250 0.000500
vt 0.615992 0.326012 0.000500
vt 0.731984 0.500000 0.000500
vt 0.500000 0.000500 0.000500
vt 0.999501 0.250250 0.000500
vt 0.615992 0.673988 0.000500
vt 0.999500 0.749750 0.000500
vt 0.500000 0.999500 0.000500
vt 0.000499 0.749750 0.000500
vt 0.615992 0.673988 0.999500
vt 0.615992 0.326012 0.999500
vt 0.731984 0.500000 0.999500
vt 0.999501 0.749750 0.999500
vt 0.384008 0.673988 0.999500
vt 0.500000 0.999500 0.999500
vt 0.268016 0.500000 0.999500
vt 0.000500 0.749750 0.999500
vt 0.384008 0.326012 0.999500
vt 0.000500 0.250250 0.999500
vt 0.500000 0.000500 0.999500
vt 0.999500 0.250250 0.999500
# 64 texture coords

g Star002
usemtl _Star2_Star2wire_088144225
s off
f -11/-64/-14 -12/-63/-14 -24/-62/-14 -23/-61/-14 
f -10/-60/-13 -11/-59/-13 -23/-58/-13 -22/-57/-13 
f -9/-56/-12 -10/-55/-12 -22/-54/-12 -21/-53/-12 
f -8/-52/-11 -9/-51/-11 -21/-50/-11 -20/-49/-11 
f -7/-48/-10 -8/-47/-10 -20/-46/-10 -19/-45/-10 
f -6/-44/-9 -7/-43/-9 -19/-42/-9 -18/-41/-9 
f -5/-40/-8 -6/-44/-8 -18/-41/-8 -17/-39/-8 
f -4/-38/-7 -5/-37/-7 -17/-36/-7 -16/-35/-7 
f -3/-56/-6 -4/-34/-6 -16/-33/-6 -15/-53/-6 
f -2/-32/-5 -3/-51/-5 -15/-50/-5 -14/-31/-5 
f -1/-30/-4 -2/-29/-4 -14/-28/-4 -13/-27/-4 
f -12/-63/-3 -1/-26/-3 -13/-25/-3 -24/-62/-3 
f -14/-24/-2 -22/-23/-2 -24/-22/-2 -13/-21/-2 
f -16/-20/-2 -18/-19/-2 -14/-24/-2 -15/-18/-2 
f -16/-20/-2 -17/-17/-2 -18/-19/-2 
f -20/-16/-2 -14/-24/-2 -18/-19/-2 -19/-15/-2 
f -22/-23/-2 -14/-24/-2 -20/-16/-2 -21/-14/-2 
f -24/-22/-2 -22/-23/-2 -23/-13/-2 
f -10/-12/-1 -2/-11/-1 -12/-10/-1 -11/-9/-1 
f -8/-8/-1 -2/-11/-1 -10/-12/-1 -9/-7/-1 
f -6/-6/-1 -2/-11/-1 -8/-8/-1 -7/-5/-1 
f -4/-4/-1 -2/-11/-1 -6/-6/-1 -5/-3/-1 
f -4/-4/-1 -3/-2/-1 -2/-11/-1 
f -12/-10/-1 -2/-11/-1 -1/-1/-1 
# 20 polygons - 4 triangles

