# 3ds Max Wavefront OBJ Exporter v0.97b - (c)2007 guruware
# File Created: 27.05.2012 17:48:05

mtllib Star.mtl

#
# object Star001
#

v  23.819056 0.000000 -0.000000
v  22.776192 0.674049 1.445511
v  20.432899 0.840526 1.802505
v  18.553722 0.374069 0.802200
v  18.553722 -0.374069 -0.802200
v  20.432899 -0.840525 -1.802505
v  22.776192 -0.674049 -1.445496
v  50.705650 26.532116 -12.372131
v  48.485622 26.044510 -10.384933
v  43.497265 23.600771 -8.810760
v  39.496914 21.041084 -8.834991
v  39.496914 20.292946 -10.439377
v  43.497265 21.919722 -12.415787
v  48.485626 24.696411 -13.275940
v  11.909529 18.695232 -8.717728
v  11.388096 18.550755 -6.890533
v  10.216448 16.878014 -5.675888
v  9.276859 14.936623 -5.988434
v  9.276859 14.188484 -7.592819
v  10.216448 15.196963 -9.280914
v  11.388096 17.202656 -9.781540
v  0.000000 53.064194 -24.744232
v  0.000000 51.414944 -22.215363
v  -0.000002 46.361023 -19.424042
v  -0.000004 41.708134 -18.472198
v  -0.000004 40.959995 -20.076584
v  -0.000004 44.679970 -23.029068
v  0.000000 50.066849 -25.106369
v  -11.909531 18.695232 -8.717728
v  -11.388096 18.550753 -6.890533
v  -10.216450 16.878012 -5.675888
v  -9.276863 14.936619 -5.988434
v  -9.276863 14.188480 -7.592819
v  -10.216450 15.196961 -9.280914
v  -11.388100 17.202654 -9.781540
v  -50.705658 26.532110 -12.372131
v  -48.485626 26.044504 -10.384933
v  -43.497269 23.600761 -8.810760
v  -39.496918 21.041073 -8.834991
v  -39.496918 20.292936 -10.439377
v  -43.497269 21.919710 -12.415787
v  -48.485626 24.696405 -13.275940
v  -23.819054 -0.000001 -0.000000
v  -22.776192 0.674048 1.445511
v  -20.432899 0.840524 1.802521
v  -18.553726 0.374067 0.802200
v  -18.553726 -0.374071 -0.802185
v  -20.432899 -0.840527 -1.802505
v  -22.776192 -0.674050 -1.445496
v  -50.705650 -26.532116 12.372131
v  -48.485619 -24.696415 13.275940
v  -43.497253 -21.919731 12.415787
v  -39.496902 -20.292961 10.439392
v  -39.496902 -21.041100 8.835007
v  -43.497253 -23.600780 8.810760
v  -48.485626 -26.044514 10.384933
v  -11.909523 -18.695232 8.717728
v  -11.388092 -17.202656 9.781555
v  -10.216446 -15.196963 9.280914
v  -9.276859 -14.188482 7.592819
v  -9.276859 -14.936621 5.988434
v  -10.216446 -16.878014 5.675888
v  -11.388092 -18.550755 6.890549
v  -0.000006 -53.064194 24.744232
v  -0.000004 -50.066845 25.106369
v  0.000002 -44.679970 23.029068
v  0.000006 -40.959995 20.076584
v  0.000006 -41.708134 18.472198
v  0.000002 -46.361023 19.424042
v  -0.000002 -51.414948 22.215363
v  11.909531 -18.695230 8.717728
v  11.388096 -17.202654 9.781540
v  10.216446 -15.196965 9.280914
v  9.276855 -14.188485 7.592819
v  9.276855 -14.936624 5.988434
v  10.216446 -16.878014 5.675888
v  11.388098 -18.550753 6.890533
v  50.705662 -26.532103 12.372116
v  48.485634 -24.696398 13.275940
v  43.497272 -21.919710 12.415787
v  39.496918 -20.292938 10.439377
v  39.496918 -21.041079 8.834991
v  43.497272 -23.600760 8.810760
v  48.485634 -26.044498 10.384933
# 84 vertices

vn 0.663576 -0.368974 0.650789
vn 0.163887 0.275608 0.947196
vn -0.459208 0.712647 0.530342
vn -0.736511 0.613050 -0.285869
vn -0.459207 0.051814 -0.886817
vn 0.163890 -0.548439 -0.819972
vn 0.663575 -0.735705 -0.135670
vn -0.196002 0.980366 0.021587
vn -0.048408 0.608863 0.791797
vn 0.135637 -0.221122 0.965768
vn 0.217545 -0.884602 0.412497
vn 0.135637 -0.881955 -0.451395
vn -0.048409 -0.215180 -0.975374
vn -0.196002 0.613628 -0.764882
vn 0.859575 0.428028 0.279146
vn 0.212296 0.472448 0.855408
vn -0.594845 0.161106 0.787530
vn -0.954057 -0.271553 0.126627
vn -0.594845 -0.499727 -0.629629
vn 0.212299 -0.351596 -0.911762
vn 0.859576 0.061293 -0.507320
vn -0.859575 0.428028 0.279146
vn -0.212296 0.472448 0.855408
vn 0.594846 0.161105 0.787530
vn 0.954057 -0.271552 0.126627
vn 0.594845 -0.499726 -0.629629
vn -0.212300 -0.351596 -0.911762
vn -0.859576 0.061293 -0.507319
vn 0.196002 0.980366 0.021587
vn 0.048408 0.608862 0.791798
vn -0.135637 -0.221121 0.965768
vn -0.217545 -0.884602 0.412497
vn -0.135636 -0.881955 -0.451396
vn 0.048409 -0.215179 -0.975374
vn 0.196002 0.613628 -0.764881
vn -0.663575 -0.368974 0.650789
vn -0.163890 0.275606 0.947197
vn 0.459210 0.712648 0.530339
vn 0.736511 0.613050 -0.285870
vn 0.459210 0.051817 -0.886815
vn -0.163891 -0.548440 -0.819972
vn -0.663575 -0.735705 -0.135671
vn -0.663575 0.735705 0.135672
vn -0.163889 0.548438 0.819973
vn 0.459207 -0.051814 0.886817
vn 0.736511 -0.613049 0.285870
vn 0.459210 -0.712647 -0.530340
vn -0.163890 -0.275605 -0.947197
vn -0.663575 0.368972 -0.650790
vn 0.196002 -0.613631 0.764879
vn 0.048407 0.215184 0.975373
vn -0.135637 0.881955 0.451396
vn -0.217546 0.884602 -0.412497
vn -0.135638 0.221126 -0.965767
vn 0.048409 -0.608867 -0.791794
vn 0.196002 -0.980366 -0.021586
vn -0.859576 -0.061294 0.507318
vn -0.212295 0.351597 0.911762
vn 0.594845 0.499727 0.629629
vn 0.954057 0.271553 -0.126627
vn 0.594845 -0.161106 -0.787530
vn -0.212299 -0.472449 -0.855407
vn -0.859575 -0.428028 -0.279147
vn 0.859575 -0.061293 0.507320
vn 0.212299 0.351596 0.911762
vn -0.594845 0.499726 0.629629
vn -0.954057 0.271552 -0.126627
vn -0.594846 -0.161106 -0.787530
vn 0.212296 -0.472448 -0.855408
vn 0.859576 -0.428027 -0.279144
vn -0.196002 -0.613631 0.764879
vn -0.048409 0.215180 0.975374
vn 0.135636 0.881955 0.451395
vn 0.217545 0.884602 -0.412498
vn 0.135637 0.221122 -0.965768
vn -0.048408 -0.608863 -0.791797
vn -0.196002 -0.980366 -0.021587
vn 0.663575 0.735705 0.135670
vn 0.163887 0.548437 0.819974
vn -0.459207 -0.051814 0.886817
vn -0.736511 -0.613050 0.285870
vn -0.459207 -0.712647 -0.530343
vn 0.163890 -0.275605 -0.947197
vn 0.663574 0.368970 -0.650793
# 84 vertex normals

vt 0.977631 0.745161 0.706612
vt 0.724368 0.506345 0.471241
vt 0.734641 0.500000 0.500000
vt 0.999500 0.749750 0.746148
vt 0.928491 0.722157 0.675293
vt 0.701284 0.507912 0.464138
vt 0.889083 0.698063 0.675775
vt 0.682772 0.503521 0.484040
vt 0.515960 0.503521 0.682772
vt 0.324225 0.698063 0.889083
vt 0.292305 0.691020 0.889083
vt 0.484040 0.496479 0.682772
vt 0.298716 0.492088 0.535861
vt 0.317228 0.496479 0.515960
vt 0.110917 0.691020 0.707695
vt 0.071509 0.706333 0.747016
vt 0.275632 0.493655 0.528759
vt 0.022369 0.732471 0.764130
vt 0.265359 0.500000 0.500000
vt 0.275632 0.528759 0.493655
vt 0.022369 0.764130 0.732471
vt 0.000500 0.746148 0.749750
vt 0.977631 0.706612 0.745161
vt 0.999500 0.746148 0.749750
vt 0.617321 0.673442 0.675981
vt 0.612184 0.637090 0.674621
vt 0.612184 0.674621 0.637090
vt 0.600642 0.658875 0.612924
vt 0.591386 0.640600 0.619142
vt 0.110917 0.675775 0.698063
vt 0.408614 0.619142 0.640600
vt 0.408614 0.651062 0.633558
vt 0.110917 0.707695 0.691020
vt 0.399358 0.643051 0.684647
vt 0.408614 0.633558 0.651062
vt 0.387816 0.661931 0.694607
vt 0.382679 0.675981 0.673442
vt 0.000500 0.749750 0.746148
vt 0.941983 0.983976 0.500000
vt 0.637090 0.674621 0.612184
vt 0.673442 0.675981 0.617321
vt 0.992296 0.999501 0.500000
vt 0.500000 0.936403 0.886449
vt 0.500000 0.983976 0.941983
vt 0.500000 0.892604 0.867511
vt 0.380858 0.640600 0.591386
vt 0.132489 0.892604 0.500000
vt 0.100569 0.885562 0.500000
vt 0.348938 0.633558 0.591386
vt 0.500000 0.885562 0.899431
vt 0.500000 0.920579 0.958172
vt 0.500000 0.971286 0.999501
vt 0.500000 0.999501 0.992296
vt 0.058017 0.983976 0.500000
vt 0.007704 0.999501 0.500000
vt 0.326558 0.675981 0.382679
vt 0.362910 0.674621 0.387816
vt 0.387816 0.674621 0.637090
vt 0.399358 0.658875 0.612924
vt 0.408614 0.640600 0.619142
vt 0.867511 0.892604 0.500000
vt 0.619142 0.640600 0.408614
vt 0.651062 0.633558 0.408614
vt 0.899431 0.885562 0.500000
vt 0.600642 0.643051 0.684647
vt 0.591386 0.633558 0.651062
vt 0.612184 0.661931 0.694607
vt 0.617321 0.675981 0.673442
vt 0.022369 0.706612 0.745160
vt 0.387816 0.637090 0.674621
vt 0.382679 0.673442 0.675981
vt 0.071509 0.722157 0.675294
vt 0.022369 0.745160 0.706612
vt 0.110917 0.698063 0.675776
vt 0.591386 0.619142 0.640600
vt 0.889083 0.675776 0.698063
vt 0.889083 0.707695 0.691020
vt 0.591386 0.651062 0.633558
vt 0.889083 0.691020 0.707695
vt 0.928491 0.706333 0.747017
vt 0.977631 0.732471 0.764130
vt 0.275632 0.506345 0.471241
vt 0.298716 0.507912 0.464138
vt 0.317228 0.503521 0.484040
vt 0.675776 0.698063 0.110917
vt 0.484040 0.503521 0.317228
vt 0.515960 0.496479 0.317228
vt 0.707695 0.691020 0.110917
vt 0.701284 0.492088 0.535862
vt 0.682772 0.496479 0.515960
vt 0.724368 0.493655 0.528759
vt 0.977631 0.764130 0.732471
vt 0.724368 0.528759 0.493655
vt 0.022369 0.235871 0.267529
vt 0.275632 0.471241 0.506345
vt 0.000500 0.253852 0.250250
vt 0.071509 0.293667 0.252984
vt 0.022369 0.267529 0.235871
vt 0.110917 0.308980 0.292305
vt 0.292305 0.308980 0.110917
vt 0.324224 0.301937 0.110917
vt 0.889083 0.301937 0.324224
vt 0.928491 0.277843 0.324707
vt 0.977631 0.254839 0.293388
vt 0.999500 0.250250 0.253852
vt 0.000500 0.250250 0.253852
vt 0.382679 0.324019 0.326558
vt 0.387816 0.338069 0.305392
vt 0.399358 0.356949 0.315353
vt 0.408614 0.366442 0.348938
vt 0.110917 0.292305 0.308980
vt 0.408614 0.348938 0.366442
vt 0.408614 0.380858 0.359400
vt 0.110917 0.324224 0.301937
vt 0.600642 0.341125 0.387076
vt 0.591386 0.359400 0.380858
vt 0.612184 0.325379 0.362910
vt 0.617321 0.326558 0.324019
vt 0.999500 0.253852 0.250250
vt 0.977631 0.293388 0.254839
vt 0.612184 0.362910 0.325379
vt 0.500000 0.028714 0.000500
vt 0.500000 0.000499 0.007704
vt 0.500000 0.079421 0.041828
vt 0.500000 0.114438 0.100569
vt 0.348938 0.366442 0.408614
vt 0.100569 0.114438 0.500000
vt 0.132489 0.107396 0.500000
vt 0.380858 0.359400 0.408614
vt 0.500000 0.107396 0.132489
vt 0.500000 0.063597 0.113552
vt 0.500000 0.016024 0.058017
vt 0.673442 0.324019 0.382679
vt 0.637090 0.325379 0.387816
vt 0.941983 0.016024 0.500000
vt 0.992296 0.000499 0.500000
vt 0.617321 0.324019 0.326558
vt 0.612184 0.338069 0.305393
vt 0.600642 0.356949 0.315353
vt 0.591386 0.366442 0.348938
vt 0.899431 0.114438 0.500000
vt 0.651062 0.366442 0.591386
vt 0.619142 0.359399 0.591386
vt 0.867511 0.107396 0.500000
vt 0.399358 0.341125 0.387076
vt 0.408614 0.359399 0.380858
vt 0.387816 0.325379 0.362910
vt 0.326558 0.324019 0.617321
vt 0.007704 0.000499 0.500000
vt 0.058017 0.016024 0.500000
vt 0.362910 0.325379 0.612184
vt 0.977631 0.267529 0.235870
vt 0.928491 0.293667 0.252983
vt 0.889083 0.308980 0.292305
vt 0.591386 0.348938 0.366442
vt 0.889083 0.292305 0.308980
vt 0.889083 0.324224 0.301937
vt 0.591386 0.380858 0.359399
vt 0.110917 0.301937 0.324224
vt 0.071509 0.277843 0.324706
vt 0.022369 0.254840 0.293388
vt 0.382679 0.326558 0.324019
vt 0.387816 0.362910 0.325379
vt 0.022369 0.293388 0.254840
vt 0.977631 0.235870 0.267529
vt 0.724368 0.471241 0.506345
vt 0.707695 0.308980 0.889083
vt 0.675776 0.301937 0.889083
# 168 texture coords

g Star001
usemtl _Star_StarMaterial__25
s off
f -76/-168/-84 -83/-167/-84 -84/-166/-84 -77/-165/-84 
f -75/-164/-83 -82/-163/-83 -83/-167/-83 -76/-168/-83 
f -74/-162/-82 -81/-161/-82 -82/-163/-82 -75/-164/-82 
f -81/-160/-81 -74/-159/-81 -73/-158/-81 -80/-157/-81 
f -79/-156/-80 -80/-155/-80 -73/-154/-80 -72/-153/-80 
f -78/-152/-79 -79/-156/-79 -72/-153/-79 -71/-151/-79 
f -84/-150/-78 -78/-149/-78 -71/-148/-78 -77/-147/-78 
f -76/-146/-77 -77/-145/-77 -70/-144/-77 -69/-143/-77 
f -75/-164/-76 -76/-168/-76 -69/-142/-76 -68/-141/-76 
f -74/-162/-75 -75/-164/-75 -68/-141/-75 -67/-140/-75 
f -74/-139/-74 -67/-138/-74 -66/-137/-74 -73/-136/-74 
f -65/-135/-73 -72/-153/-73 -73/-154/-73 -66/-134/-73 
f -64/-133/-72 -71/-151/-72 -72/-153/-72 -65/-135/-72 
f -70/-132/-71 -77/-131/-71 -71/-151/-71 -64/-133/-71 
f -62/-130/-70 -69/-129/-70 -70/-128/-70 -63/-127/-70 
f -61/-126/-69 -68/-141/-69 -69/-142/-69 -62/-125/-69 
f -60/-124/-68 -67/-140/-68 -68/-141/-68 -61/-126/-68 
f -67/-123/-67 -60/-122/-67 -59/-121/-67 -66/-120/-67 
f -65/-135/-66 -66/-134/-66 -59/-119/-66 -58/-118/-66 
f -64/-133/-65 -65/-135/-65 -58/-118/-65 -57/-117/-65 
f -70/-132/-64 -64/-133/-64 -57/-117/-64 -63/-116/-64 
f -62/-115/-63 -63/-114/-63 -56/-113/-63 -55/-112/-63 
f -61/-126/-62 -62/-125/-62 -55/-111/-62 -54/-110/-62 
f -60/-124/-61 -61/-126/-61 -54/-110/-61 -53/-109/-61 
f -60/-108/-60 -53/-107/-60 -52/-106/-60 -59/-105/-60 
f -51/-104/-59 -58/-118/-59 -59/-119/-59 -52/-103/-59 
f -50/-102/-58 -57/-117/-58 -58/-118/-58 -51/-104/-58 
f -56/-101/-57 -63/-116/-57 -57/-117/-57 -50/-102/-57 
f -48/-100/-56 -55/-99/-56 -56/-98/-56 -49/-147/-56 
f -47/-97/-55 -54/-110/-55 -55/-111/-55 -48/-96/-55 
f -46/-95/-54 -53/-109/-54 -54/-110/-54 -47/-97/-54 
f -53/-94/-53 -46/-93/-53 -45/-92/-53 -52/-91/-53 
f -51/-104/-52 -52/-103/-52 -45/-90/-52 -44/-89/-52 
f -50/-102/-51 -51/-104/-51 -44/-89/-51 -43/-88/-51 
f -56/-101/-50 -50/-102/-50 -43/-88/-50 -49/-165/-50 
f -48/-96/-49 -49/-131/-49 -42/-150/-49 -41/-87/-49 
f -47/-97/-48 -48/-96/-48 -41/-87/-48 -40/-86/-48 
f -46/-95/-47 -47/-97/-47 -40/-86/-47 -39/-85/-47 
f -46/-84/-46 -39/-83/-46 -38/-82/-46 -45/-81/-46 
f -37/-80/-45 -44/-89/-45 -45/-90/-45 -38/-79/-45 
f -36/-78/-44 -43/-88/-44 -44/-89/-44 -37/-80/-44 
f -42/-166/-43 -49/-145/-43 -43/-77/-43 -36/-76/-43 
f -34/-75/-42 -41/-74/-42 -42/-150/-42 -35/-73/-42 
f -33/-72/-41 -40/-86/-41 -41/-87/-41 -34/-71/-41 
f -32/-70/-40 -39/-85/-40 -40/-86/-40 -33/-72/-40 
f -39/-83/-39 -32/-69/-39 -31/-68/-39 -38/-82/-39 
f -37/-80/-38 -38/-79/-38 -31/-67/-38 -30/-66/-38 
f -36/-78/-37 -37/-80/-37 -30/-66/-37 -29/-65/-37 
f -42/-166/-36 -36/-78/-36 -29/-65/-36 -35/-64/-36 
f -34/-71/-35 -35/-63/-35 -28/-62/-35 -27/-61/-35 
f -33/-72/-34 -34/-71/-34 -27/-61/-34 -26/-60/-34 
f -32/-70/-33 -33/-72/-33 -26/-60/-33 -25/-59/-33 
f -32/-58/-32 -25/-57/-32 -24/-56/-32 -31/-55/-32 
f -23/-54/-31 -30/-66/-31 -31/-67/-31 -24/-53/-31 
f -22/-52/-30 -29/-65/-30 -30/-66/-30 -23/-54/-30 
f -28/-51/-29 -35/-50/-29 -29/-49/-29 -22/-48/-29 
f -20/-47/-28 -27/-61/-28 -28/-62/-28 -21/-46/-28 
f -19/-45/-27 -26/-60/-27 -27/-61/-27 -20/-47/-27 
f -18/-44/-26 -25/-59/-26 -26/-60/-26 -19/-45/-26 
f -25/-43/-25 -18/-42/-25 -17/-41/-25 -24/-40/-25 
f -23/-54/-24 -24/-53/-24 -17/-39/-24 -16/-38/-24 
f -22/-52/-23 -23/-54/-23 -16/-38/-23 -15/-37/-23 
f -28/-36/-22 -22/-35/-22 -15/-34/-22 -21/-33/-22 
f -20/-47/-21 -21/-46/-21 -14/-32/-21 -13/-31/-21 
f -19/-45/-20 -20/-47/-20 -13/-31/-20 -12/-30/-20 
f -18/-44/-19 -19/-45/-19 -12/-30/-19 -11/-29/-19 
f -18/-28/-18 -11/-27/-18 -10/-26/-18 -17/-25/-18 
f -9/-24/-17 -16/-38/-17 -17/-39/-17 -10/-23/-17 
f -8/-22/-16 -15/-37/-16 -16/-38/-16 -9/-24/-16 
f -14/-21/-15 -21/-20/-15 -15/-19/-15 -8/-18/-15 
f -6/-17/-14 -13/-31/-14 -14/-32/-14 -7/-64/-14 
f -5/-16/-13 -12/-30/-13 -13/-31/-13 -6/-17/-13 
f -4/-15/-12 -11/-29/-12 -12/-30/-12 -5/-16/-12 
f -11/-14/-11 -4/-13/-11 -3/-12/-11 -10/-11/-11 
f -9/-24/-10 -10/-23/-10 -3/-10/-10 -2/-9/-10 
f -8/-22/-9 -9/-24/-9 -2/-9/-9 -1/-8/-9 
f -14/-7/-8 -8/-6/-8 -1/-5/-8 -7/-73/-8 
f -6/-4/-7 -7/-50/-7 -84/-166/-7 -83/-3/-7 
f -5/-16/-6 -6/-17/-6 -83/-167/-6 -82/-163/-6 
f -4/-15/-5 -5/-16/-5 -82/-163/-5 -81/-161/-5 
f -4/-2/-4 -81/-160/-4 -80/-157/-4 -3/-1/-4 
f -79/-156/-3 -2/-9/-3 -3/-10/-3 -80/-155/-3 
f -78/-152/-2 -1/-8/-2 -2/-9/-2 -79/-156/-2 
f -84/-150/-1 -7/-63/-1 -1/-8/-1 -78/-152/-1 
# 84 polygons

