# 3ds Max Wavefront OBJ Exporter v0.97b - (c)2007 guruware
# File Created: 27.05.2012 16:45:16

mtllib U-Wall.mtl

#
# object C_Ext001
#

v  -118.760445 158.661423 157.480316
v  118.760445 158.661423 157.480316
v  118.760445 158.661423 -157.480316
v  -111.818947 158.661423 -157.480316
v  -118.760445 158.661423 151.078766
v  108.005150 158.661423 151.078766
v  108.005150 158.661423 -146.832550
v  -111.818947 158.661423 -146.832550
v  -118.760445 158.661423 157.480316
v  118.760445 158.661423 157.480316
v  118.760445 158.661423 -157.480316
v  -111.818947 158.661423 -157.480316
v  -111.818947 158.661423 -146.832581
v  108.005150 158.661423 -146.832581
v  108.005150 158.661423 151.078766
v  -118.760445 158.661423 151.078766
v  -118.760445 0.000000 157.480316
v  118.760445 0.000000 157.480316
v  118.760445 0.000000 -157.480316
v  -111.818947 0.000000 -157.480316
v  -111.818947 0.000000 -146.832581
v  108.005150 0.000000 -146.832581
v  108.005150 0.000000 151.078766
v  -118.760445 0.000000 151.078766
v  -118.760445 0.000000 157.480316
v  118.760445 0.000000 157.480316
v  118.760445 0.000000 -157.480316
v  -111.818947 0.000000 -157.480316
v  -118.760445 0.000000 151.078766
v  108.005150 0.000000 151.078766
v  108.005150 0.000000 -146.832550
v  -111.818947 0.000000 -146.832550
# 32 vertices

vn 0.000000 1.000000 -0.000000
vn 0.000000 0.000000 1.000000
vn 1.000000 0.000000 -0.000000
vn 0.000000 0.000000 -1.000000
vn -1.000000 0.000000 -0.000000
vn 0.000000 -1.000000 -0.000000
# 6 vertex normals

vt 0.000000 0.000000 0.000000
vt 1.000000 0.000000 0.000000
vt 0.954719 0.020325 0.000000
vt 0.000000 0.020325 0.000000
vt 1.000000 1.000000 0.000000
vt 0.954719 0.966193 0.000000
vt 0.029225 1.000000 0.000000
vt 0.029225 0.966193 0.000000
vt 0.153774 0.000000 0.000000
vt 0.153774 1.000000 0.000000
vt 0.000000 1.000000 0.000000
vt 0.357683 0.000000 0.000000
vt 0.357683 1.000000 0.000000
vt 0.506963 0.000000 0.000000
vt 0.506963 1.000000 0.000000
vt 0.513857 0.000000 0.000000
vt 0.513857 1.000000 0.000000
vt 0.656173 0.000000 0.000000
vt 0.656173 1.000000 0.000000
vt 0.849045 0.000000 0.000000
vt 0.849045 1.000000 0.000000
vt 0.995856 0.000000 0.000000
vt 0.995856 1.000000 0.000000
vt 0.000000 0.979675 0.000000
vt 0.954719 0.979675 0.000000
vt 0.954719 0.033807 0.000000
vt 0.029225 0.033807 0.000000
vt 0.029225 0.000000 0.000000
# 28 texture coords

g C_Ext001
usemtl _U_WallMaterial__25
s off
f -32/-28/-6 -31/-27/-6 -27/-26/-6 -28/-25/-6 
f -31/-27/-6 -30/-24/-6 -26/-23/-6 -27/-26/-6 
f -26/-23/-6 -30/-24/-6 -29/-22/-6 -25/-21/-6 
f -16/-28/-5 -15/-20/-5 -23/-19/-5 -24/-18/-5 
f -15/-20/-4 -14/-17/-4 -22/-16/-4 -23/-19/-4 
f -14/-17/-3 -13/-15/-3 -21/-14/-3 -22/-16/-3 
f -13/-15/-2 -12/-13/-2 -20/-12/-2 -21/-14/-2 
f -12/-13/-5 -11/-11/-5 -19/-10/-5 -20/-12/-5 
f -11/-11/-2 -10/-9/-2 -18/-8/-2 -19/-10/-2 
f -10/-9/-3 -9/-7/-3 -17/-6/-3 -18/-8/-3 
f -9/-7/-2 -16/-27/-2 -24/-24/-2 -17/-6/-2 
f -8/-18/-1 -4/-5/-1 -3/-4/-1 -7/-24/-1 
f -7/-24/-1 -3/-4/-1 -2/-3/-1 -6/-27/-1 
f -2/-3/-1 -1/-2/-1 -5/-1/-1 -6/-27/-1 
# 14 polygons

