# 3ds Max Wavefront OBJ Exporter v0.97b - (c)2007 guruware
# File Created: 27.05.2012 16:45:50

mtllib wall with door&windows.mtl

#
# object Box005
#

v  -5.254555 -79.330711 143.725189
v  -5.254555 -79.330711 -143.725189
v  5.254555 -79.330711 -143.725189
v  5.254555 -79.330711 143.725189
v  -5.254555 79.330711 143.725189
v  5.254555 79.330711 143.725189
v  5.254555 79.330711 -143.725189
v  -5.254555 79.330711 -143.725189
v  -5.254555 -10.583099 108.481575
v  5.254555 -10.583099 108.481575
v  -5.254555 53.754005 98.639061
v  5.254555 53.754005 98.639061
v  -5.254555 49.963432 108.481575
v  5.254555 49.963432 108.481575
v  -5.254555 -10.583099 69.111504
v  5.254555 -10.583099 69.111504
v  -5.254555 49.963432 69.111504
v  5.254555 49.963432 69.111504
v  -5.254555 54.185402 78.954018
v  5.254555 54.185402 78.954018
v  -5.254555 55.343147 88.796539
v  5.254555 55.343147 88.796539
v  5.254555 -10.583092 -66.274498
v  -5.254555 -10.583092 -66.274498
v  5.254555 53.754005 -76.117012
v  -5.254555 53.754005 -76.117012
v  5.254555 49.963448 -66.274498
v  -5.254555 49.963448 -66.274498
v  5.254555 -10.583092 -105.644569
v  -5.254555 -10.583092 -105.644569
v  5.254555 49.963448 -105.644569
v  -5.254555 49.963448 -105.644569
v  5.254555 54.185417 -95.802055
v  -5.254555 54.185417 -95.802055
v  5.254555 55.343147 -85.959534
v  -5.254555 55.343147 -85.959534
v  -5.254555 -79.330711 -18.494610
v  5.254555 -79.330711 -18.494610
v  5.254555 -79.330711 20.875469
v  -5.254555 -79.330711 20.875469
v  5.254555 -0.590553 20.875469
v  -5.254555 -0.590553 20.875469
v  5.254555 -0.590553 -18.494610
v  -5.254555 -0.590553 -18.494610
# 44 vertices

vn 0.000000 1.000000 -0.000000
vn 0.000000 0.000000 1.000000
vn 0.000000 0.000000 -1.000000
vn 0.000000 -0.919018 0.394215
vn 0.000000 -0.993153 0.116821
vn 0.000000 -0.987215 -0.159393
vn 0.000000 -0.933187 -0.359391
vn 0.000000 -0.933187 -0.359390
vn 0.000000 -0.993153 0.116820
vn 0.000000 -1.000000 -0.000000
vn 1.000000 0.000000 -0.000000
vn -1.000000 0.000000 -0.000000
# 12 vertex normals

vt 0.000000 0.000000 0.000000
vt 1.000000 0.000000 0.000000
vt 1.000000 1.000000 0.000000
vt 0.000000 1.000000 0.000000
vt 0.324658 1.000000 0.000000
vt 0.639230 1.000000 0.000000
vt 0.639230 0.750000 0.000000
vt 0.324658 0.750000 0.000000
vt 0.324658 0.500000 0.000000
vt 0.639230 0.500000 0.000000
vt 0.324658 0.250000 0.000000
vt 0.639230 0.250000 0.000000
vt 0.324658 0.000000 0.000000
vt 0.639230 0.000000 0.000000
vt 0.639230 -0.000000 0.000000
vt 0.360770 0.000000 0.000000
vt 0.360770 1.000000 0.000000
vt 0.675342 1.000000 0.000000
vt 0.675342 0.000000 0.000000
vt 0.324657 0.750000 0.000000
vt 0.324657 1.000000 0.000000
vt 0.639229 1.000000 0.000000
vt 0.639229 0.750000 0.000000
vt 0.360771 0.000000 0.000000
vt 0.360771 1.000000 0.000000
vt 0.675343 1.000000 0.000000
vt 0.675343 0.000000 0.000000
vt 0.639229 -0.000000 0.000000
vt 0.324657 -0.000000 0.000000
vt 0.639229 0.250000 0.000000
vt 0.639229 0.000000 0.000000
vt 0.639229 0.500000 0.000000
vt 0.324657 0.250000 0.000000
vt 0.324657 0.500000 0.000000
vt 0.000000 0.564340 0.000000
vt 1.000000 0.564340 0.000000
vt 1.000000 0.427377 0.000000
vt 0.000000 0.427377 0.000000
vt 0.764801 0.838797 0.000000
vt 0.799041 0.848813 0.000000
vt 0.259571 0.814906 0.000000
vt 0.730560 0.814906 0.000000
vt 0.740429 0.814906 0.000000
vt 0.200959 0.848813 0.000000
vt 0.235200 0.838797 0.000000
vt 0.269440 0.814906 0.000000
vt 0.779622 1.000000 0.000000
vt 0.779622 0.000000 0.000000
vt 0.277968 0.000000 0.000000
vt 0.277968 1.000000 0.000000
vt 0.220378 0.000000 0.000000
vt 0.220378 1.000000 0.000000
vt 0.722032 1.000000 0.000000
vt 0.722032 -0.000000 0.000000
vt 0.122608 0.433298 0.000000
vt 0.122608 0.814906 0.000000
vt 0.867523 0.814906 0.000000
vt 0.867523 0.433298 0.000000
vt 0.730560 0.433298 0.000000
vt 0.564340 -0.000000 0.000000
vt 0.564340 0.496278 0.000000
vt 0.427377 0.000000 0.000000
vt 0.259571 0.433298 0.000000
vt 0.427377 0.496278 0.000000
vt 0.156848 0.838797 0.000000
vt 0.191089 0.848813 0.000000
vt 0.833282 0.841516 0.000000
vt 0.225330 0.841516 0.000000
vt 0.877392 0.814906 0.000000
vt 0.877392 0.433298 0.000000
vt 0.132477 0.433298 0.000000
vt 0.132477 0.814906 0.000000
vt 0.435660 0.000000 0.000000
vt 0.269440 0.433298 0.000000
vt 0.435660 0.496278 0.000000
vt 0.740429 0.433298 0.000000
vt 0.572623 0.000000 0.000000
vt 0.572623 0.496278 0.000000
vt 0.808911 0.848813 0.000000
vt 0.843152 0.838797 0.000000
vt 0.166718 0.841516 0.000000
vt 0.774670 0.841516 0.000000
# 82 texture coords

g Box005
usemtl _wall_with_door_windowsMaterial__25
s off
f -40/-82/-12 -39/-81/-12 -38/-80/-12 -37/-79/-12 
f -44/-82/-11 -41/-81/-11 -39/-80/-11 -40/-79/-11 
f -42/-82/-10 -43/-81/-10 -37/-80/-10 -38/-79/-10 
f -28/-78/-9 -27/-77/-9 -25/-76/-9 -26/-75/-9 
f -24/-74/-8 -26/-75/-8 -25/-76/-8 -23/-73/-8 
f -34/-72/-7 -24/-74/-7 -23/-73/-7 -33/-71/-7 
f -32/-70/-6 -34/-72/-6 -33/-71/-6 -31/-69/-6 
f -36/-70/-10 -32/-78/-10 -31/-77/-10 -35/-68/-10 
f -35/-67/-12 -29/-66/-12 -30/-65/-12 -36/-64/-12 
f -28/-65/-11 -30/-64/-11 -29/-67/-11 -27/-66/-11 
f -11/-63/-9 -13/-62/-9 -14/-61/-9 -12/-60/-9 
f -16/-59/-11 -14/-58/-11 -13/-57/-11 -15/-56/-11 
f -15/-57/-12 -21/-64/-12 -22/-59/-12 -16/-58/-12 
f -18/-61/-10 -22/-55/-10 -21/-54/-10 -17/-78/-10 
f -20/-53/-5 -18/-52/-5 -17/-70/-5 -19/-72/-5 
f -10/-51/-7 -20/-53/-7 -19/-50/-7 -9/-74/-7 
f -12/-60/-4 -10/-51/-4 -9/-49/-4 -11/-63/-4 
f -7/-48/-3 -8/-47/-3 -43/-80/-3 -42/-79/-3 
f -44/-81/-3 -5/-46/-3 -6/-45/-3 -41/-82/-3 
f -20/-44/-2 -10/-43/-2 -27/-42/-2 -18/-41/-2 
f -28/-40/-1 -9/-39/-1 -19/-38/-1 -17/-37/-1 
f -1/-36/-11 -8/-35/-11 -7/-34/-11 -2/-33/-11 
f -3/-32/-3 -1/-31/-3 -2/-30/-3 -4/-29/-3 
f -5/-32/-10 -3/-31/-10 -4/-30/-10 -6/-29/-10 
f -39/-79/-2 -41/-82/-2 -35/-28/-2 -31/-27/-2 
f -38/-80/-2 -14/-26/-2 -16/-25/-2 -42/-81/-2 
f -42/-81/-2 -16/-25/-2 -22/-24/-2 -7/-23/-2 
f -2/-22/-2 -7/-23/-2 -22/-24/-2 -18/-41/-2 
f -41/-82/-2 -6/-21/-2 -29/-20/-2 -35/-28/-2 
f -29/-20/-2 -6/-21/-2 -4/-19/-2 -27/-42/-2 
f -33/-18/-2 -23/-17/-2 -39/-79/-2 -31/-27/-2 
f -38/-80/-2 -10/-43/-2 -12/-16/-2 -14/-26/-2 
f -2/-22/-2 -18/-41/-2 -27/-42/-2 -4/-19/-2 
f -39/-79/-2 -23/-17/-2 -25/-15/-2 -38/-80/-2 
f -25/-15/-2 -27/-42/-2 -10/-43/-2 -38/-80/-2 
f -40/-80/-1 -32/-14/-1 -36/-13/-1 -44/-81/-1 
f -37/-79/-1 -43/-82/-1 -15/-12/-1 -13/-11/-1 
f -43/-82/-1 -8/-10/-1 -21/-9/-1 -15/-12/-1 
f -21/-9/-1 -8/-10/-1 -1/-8/-1 -17/-37/-1 
f -44/-81/-1 -36/-13/-1 -30/-7/-1 -5/-6/-1 
f -3/-5/-1 -5/-6/-1 -30/-7/-1 -28/-40/-1 
f -40/-80/-1 -24/-4/-1 -34/-3/-1 -32/-14/-1 
f -11/-2/-1 -9/-39/-1 -37/-79/-1 -13/-11/-1 
f -1/-8/-1 -3/-5/-1 -28/-40/-1 -17/-37/-1 
f -40/-80/-1 -37/-79/-1 -26/-1/-1 -24/-4/-1 
f -26/-1/-1 -37/-79/-1 -9/-39/-1 -28/-40/-1 
# 46 polygons

